<mxfile host="65bd71144e">
    <diagram id="L4NvkSTI6OKeX2f231ty" name="Seite-1">
        <mxGraphModel dx="3970" dy="1298" grid="1" gridSize="10" guides="1" tooltips="1" connect="1" arrows="1" fold="1" page="1" pageScale="1" pageWidth="827" pageHeight="1169" math="0" shadow="0">
            <root>
                <mxCell id="0"/>
                <mxCell id="1" parent="0"/>
                <mxCell id="QfeDqmOQfvV1Y4iZlrYc-1" value="Wann start Dienstreise?&lt;br&gt;&lt;font style=&quot;font-size: 8px;&quot;&gt;ask.tripStart.dateTimeSelect&lt;/font&gt;" style="rounded=0;whiteSpace=wrap;html=1;" parent="1" vertex="1">
                    <mxGeometry x="40" y="40" width="120" height="60" as="geometry"/>
                </mxCell>
                <mxCell id="QfeDqmOQfvV1Y4iZlrYc-8" value="" style="edgeStyle=orthogonalEdgeStyle;rounded=0;orthogonalLoop=1;jettySize=auto;html=1;strokeColor=default;fontStyle=1" parent="1" source="QfeDqmOQfvV1Y4iZlrYc-2" target="QfeDqmOQfvV1Y4iZlrYc-7" edge="1">
                    <mxGeometry relative="1" as="geometry"/>
                </mxCell>
                <mxCell id="QfeDqmOQfvV1Y4iZlrYc-2" value="Dienstreise start" style="rounded=1;whiteSpace=wrap;html=1;" parent="1" vertex="1">
                    <mxGeometry x="40" y="140" width="120" height="60" as="geometry"/>
                </mxCell>
                <mxCell id="QfeDqmOQfvV1Y4iZlrYc-4" value="" style="endArrow=classic;html=1;rounded=0;strokeColor=default;fontStyle=1" parent="1" source="QfeDqmOQfvV1Y4iZlrYc-1" target="QfeDqmOQfvV1Y4iZlrYc-2" edge="1">
                    <mxGeometry width="50" height="50" relative="1" as="geometry">
                        <mxPoint x="80" y="290" as="sourcePoint"/>
                        <mxPoint x="130" y="240" as="targetPoint"/>
                    </mxGeometry>
                </mxCell>
                <mxCell id="QfeDqmOQfvV1Y4iZlrYc-12" value="" style="edgeStyle=orthogonalEdgeStyle;rounded=0;orthogonalLoop=1;jettySize=auto;html=1;strokeColor=default;fontStyle=1" parent="1" source="QfeDqmOQfvV1Y4iZlrYc-7" target="QfeDqmOQfvV1Y4iZlrYc-10" edge="1">
                    <mxGeometry relative="1" as="geometry"/>
                </mxCell>
                <mxCell id="QfeDqmOQfvV1Y4iZlrYc-7" value="Wann ende Dienstreise?&lt;br&gt;&lt;font style=&quot;font-size: 8px;&quot;&gt;ask.TripEnd.dateTimeSelect&lt;/font&gt;" style="rounded=0;whiteSpace=wrap;html=1;" parent="1" vertex="1">
                    <mxGeometry x="40" y="240" width="120" height="60" as="geometry"/>
                </mxCell>
                <mxCell id="QfeDqmOQfvV1Y4iZlrYc-15" value="" style="edgeStyle=orthogonalEdgeStyle;rounded=0;orthogonalLoop=1;jettySize=auto;html=1;strokeColor=default;fontStyle=1" parent="1" source="QfeDqmOQfvV1Y4iZlrYc-10" target="QfeDqmOQfvV1Y4iZlrYc-13" edge="1">
                    <mxGeometry relative="1" as="geometry"/>
                </mxCell>
                <mxCell id="QfeDqmOQfvV1Y4iZlrYc-10" value="Dienstreise ende" style="rounded=1;whiteSpace=wrap;html=1;" parent="1" vertex="1">
                    <mxGeometry x="40" y="340" width="120" height="60" as="geometry"/>
                </mxCell>
                <mxCell id="QfeDqmOQfvV1Y4iZlrYc-17" value="" style="edgeStyle=orthogonalEdgeStyle;rounded=0;orthogonalLoop=1;jettySize=auto;html=1;strokeColor=default;fontStyle=1" parent="1" source="QfeDqmOQfvV1Y4iZlrYc-13" target="QfeDqmOQfvV1Y4iZlrYc-16" edge="1">
                    <mxGeometry relative="1" as="geometry"/>
                </mxCell>
                <mxCell id="QfeDqmOQfvV1Y4iZlrYc-13" value="Welche Ziell채nder besucht?&lt;br&gt;&lt;font style=&quot;font-size: 8px;&quot;&gt;ask.tripDestinations.multiSelect&lt;/font&gt;" style="rounded=0;whiteSpace=wrap;html=1;" parent="1" vertex="1">
                    <mxGeometry x="40" y="440" width="120" height="60" as="geometry"/>
                </mxCell>
                <mxCell id="QfeDqmOQfvV1Y4iZlrYc-29" value="" style="edgeStyle=orthogonalEdgeStyle;rounded=0;orthogonalLoop=1;jettySize=auto;html=1;strokeColor=default;fontStyle=1" parent="1" source="QfeDqmOQfvV1Y4iZlrYc-16" target="QfeDqmOQfvV1Y4iZlrYc-21" edge="1">
                    <mxGeometry relative="1" as="geometry"/>
                </mxCell>
                <mxCell id="QfeDqmOQfvV1Y4iZlrYc-16" value="besuchte Ziell채nder" style="rounded=1;whiteSpace=wrap;html=1;" parent="1" vertex="1">
                    <mxGeometry x="40" y="540" width="120" height="60" as="geometry"/>
                </mxCell>
                <mxCell id="QfeDqmOQfvV1Y4iZlrYc-23" value="[Ziell채nder=1]" style="edgeStyle=orthogonalEdgeStyle;rounded=0;orthogonalLoop=1;jettySize=auto;html=1;strokeColor=default;fontStyle=1" parent="1" source="QfeDqmOQfvV1Y4iZlrYc-21" target="QfeDqmOQfvV1Y4iZlrYc-22" edge="1">
                    <mxGeometry y="-40" relative="1" as="geometry">
                        <mxPoint as="offset"/>
                    </mxGeometry>
                </mxCell>
                <mxCell id="QfeDqmOQfvV1Y4iZlrYc-25" value="[Ziell채nder&amp;gt;1]" style="edgeStyle=orthogonalEdgeStyle;rounded=0;orthogonalLoop=1;jettySize=auto;html=1;strokeColor=default;fontStyle=1" parent="1" source="QfeDqmOQfvV1Y4iZlrYc-21" target="QfeDqmOQfvV1Y4iZlrYc-24" edge="1">
                    <mxGeometry y="10" relative="1" as="geometry">
                        <mxPoint as="offset"/>
                    </mxGeometry>
                </mxCell>
                <mxCell id="QfeDqmOQfvV1Y4iZlrYc-21" value="Abfrage Logik" style="shape=process;whiteSpace=wrap;html=1;backgroundOutline=1;" parent="1" vertex="1">
                    <mxGeometry x="40" y="640" width="120" height="60" as="geometry"/>
                </mxCell>
                <mxCell id="QfeDqmOQfvV1Y4iZlrYc-34" value="" style="edgeStyle=orthogonalEdgeStyle;rounded=0;orthogonalLoop=1;jettySize=auto;html=1;strokeColor=default;fontStyle=1" parent="1" source="QfeDqmOQfvV1Y4iZlrYc-22" target="QfeDqmOQfvV1Y4iZlrYc-33" edge="1">
                    <mxGeometry relative="1" as="geometry"/>
                </mxCell>
                <mxCell id="QfeDqmOQfvV1Y4iZlrYc-22" value="Was ist der anlass der Reise&lt;br&gt;&lt;font style=&quot;font-size: 8px;&quot;&gt;ask.tripOccasion.string&lt;/font&gt;" style="rounded=0;whiteSpace=wrap;html=1;" parent="1" vertex="1">
                    <mxGeometry x="40" y="740" width="120" height="60" as="geometry"/>
                </mxCell>
                <mxCell id="QfeDqmOQfvV1Y4iZlrYc-31" value="" style="edgeStyle=orthogonalEdgeStyle;rounded=0;orthogonalLoop=1;jettySize=auto;html=1;strokeColor=default;fontStyle=1" parent="1" source="QfeDqmOQfvV1Y4iZlrYc-24" target="QfeDqmOQfvV1Y4iZlrYc-30" edge="1">
                    <mxGeometry relative="1" as="geometry"/>
                </mxCell>
                <mxCell id="QfeDqmOQfvV1Y4iZlrYc-24" value="Welches ist das erste Zielland?&lt;br&gt;&lt;font style=&quot;font-size: 8px;&quot;&gt;ask.firstTripDestination.select&lt;/font&gt;" style="rounded=0;whiteSpace=wrap;html=1;" parent="1" vertex="1">
                    <mxGeometry x="240" y="640" width="120" height="60" as="geometry"/>
                </mxCell>
                <mxCell id="8" value="" style="edgeStyle=none;html=1;fontStyle=1" parent="1" source="QfeDqmOQfvV1Y4iZlrYc-30" target="7" edge="1">
                    <mxGeometry relative="1" as="geometry"/>
                </mxCell>
                <mxCell id="QfeDqmOQfvV1Y4iZlrYc-30" value="erstes Zielland" style="rounded=1;whiteSpace=wrap;html=1;" parent="1" vertex="1">
                    <mxGeometry x="441" y="640" width="120" height="60" as="geometry"/>
                </mxCell>
                <mxCell id="32" style="edgeStyle=none;html=1;fontStyle=1" parent="1" source="QfeDqmOQfvV1Y4iZlrYc-33" target="453" edge="1">
                    <mxGeometry relative="1" as="geometry">
                        <mxPoint x="100" y="1140" as="targetPoint"/>
                    </mxGeometry>
                </mxCell>
                <mxCell id="QfeDqmOQfvV1Y4iZlrYc-33" value="Anlass der Reise/Teilreise" style="rounded=1;whiteSpace=wrap;html=1;" parent="1" vertex="1">
                    <mxGeometry x="40" y="840" width="120" height="60" as="geometry"/>
                </mxCell>
                <mxCell id="10" value="" style="edgeStyle=none;html=1;fontStyle=1" parent="1" source="7" target="9" edge="1">
                    <mxGeometry relative="1" as="geometry"/>
                </mxCell>
                <mxCell id="7" value="Was ist der anlass der Teilreise&lt;br&gt;&lt;font style=&quot;font-size: 8px;&quot;&gt;ask.partialTripOccasion.string&lt;/font&gt;" style="rounded=0;whiteSpace=wrap;html=1;" parent="1" vertex="1">
                    <mxGeometry x="441" y="740" width="120" height="60" as="geometry"/>
                </mxCell>
                <mxCell id="13" value="" style="edgeStyle=none;html=1;fontStyle=1" parent="1" source="9" target="12" edge="1">
                    <mxGeometry relative="1" as="geometry"/>
                </mxCell>
                <mxCell id="9" value="Anlass der Teilreise" style="rounded=1;whiteSpace=wrap;html=1;" parent="1" vertex="1">
                    <mxGeometry x="441" y="840" width="120" height="60" as="geometry"/>
                </mxCell>
                <mxCell id="24" style="edgeStyle=none;html=1;fontStyle=1" parent="1" source="11" target="23" edge="1">
                    <mxGeometry relative="1" as="geometry"/>
                </mxCell>
                <mxCell id="30" value="[Ende Teilreise&amp;lt;&lt;br&gt;Dienstreis ende]" style="edgeLabel;html=1;align=center;verticalAlign=middle;resizable=0;points=[];" parent="24" vertex="1" connectable="0">
                    <mxGeometry x="0.2556" y="-1" relative="1" as="geometry">
                        <mxPoint x="-15" y="-21" as="offset"/>
                    </mxGeometry>
                </mxCell>
                <mxCell id="52" style="edgeStyle=none;html=1;fontStyle=1" parent="1" source="11" target="453" edge="1">
                    <mxGeometry relative="1" as="geometry"/>
                </mxCell>
                <mxCell id="360" value="[Ende Teilreise==&lt;br&gt;Dienstreis ende]" style="edgeLabel;html=1;align=center;verticalAlign=middle;resizable=0;points=[];" parent="52" vertex="1" connectable="0">
                    <mxGeometry x="-0.5037" y="1" relative="1" as="geometry">
                        <mxPoint x="-21" y="-21" as="offset"/>
                    </mxGeometry>
                </mxCell>
                <mxCell id="11" value="Abfrage Logik" style="shape=process;whiteSpace=wrap;html=1;backgroundOutline=1;" parent="1" vertex="1">
                    <mxGeometry x="441" y="1140" width="120" height="60" as="geometry"/>
                </mxCell>
                <mxCell id="17" value="" style="edgeStyle=none;html=1;fontStyle=1" parent="1" source="12" target="16" edge="1">
                    <mxGeometry relative="1" as="geometry"/>
                </mxCell>
                <mxCell id="12" value="Ende der Teilreise?&lt;br&gt;&lt;font style=&quot;font-size: 8px;&quot;&gt;ask.partialTripEndDate.dateSelect&lt;/font&gt;" style="rounded=0;whiteSpace=wrap;html=1;" parent="1" vertex="1">
                    <mxGeometry x="441" y="940" width="120" height="60" as="geometry"/>
                </mxCell>
                <mxCell id="22" value="" style="edgeStyle=none;html=1;fontStyle=1" parent="1" source="16" target="11" edge="1">
                    <mxGeometry relative="1" as="geometry"/>
                </mxCell>
                <mxCell id="16" value="Ende Teilreise" style="rounded=1;whiteSpace=wrap;html=1;" parent="1" vertex="1">
                    <mxGeometry x="441" y="1040" width="120" height="60" as="geometry"/>
                </mxCell>
                <mxCell id="28" value="" style="edgeStyle=none;html=1;fontStyle=1" parent="1" source="23" target="27" edge="1">
                    <mxGeometry relative="1" as="geometry"/>
                </mxCell>
                <mxCell id="23" value="Was n채chstes Zielland?&lt;br&gt;&lt;font style=&quot;font-size: 8px;&quot;&gt;ask.nextPartialTripDestination.select&lt;/font&gt;" style="rounded=0;whiteSpace=wrap;html=1;" parent="1" vertex="1">
                    <mxGeometry x="681" y="1140" width="120" height="60" as="geometry"/>
                </mxCell>
                <mxCell id="29" style="edgeStyle=none;html=1;fontStyle=1" parent="1" source="27" target="7" edge="1">
                    <mxGeometry relative="1" as="geometry">
                        <Array as="points">
                            <mxPoint x="741" y="770"/>
                        </Array>
                    </mxGeometry>
                </mxCell>
                <mxCell id="27" value="n채chstes Zielland" style="rounded=1;whiteSpace=wrap;html=1;" parent="1" vertex="1">
                    <mxGeometry x="681" y="1040" width="120" height="60" as="geometry"/>
                </mxCell>
                <mxCell id="54" value="" style="edgeStyle=none;html=1;fontStyle=1" parent="1" source="51" target="53" edge="1">
                    <mxGeometry relative="1" as="geometry"/>
                </mxCell>
                <mxCell id="51" value="Fr체hst체ck erhalten?" style="rounded=0;whiteSpace=wrap;html=1;" parent="1" vertex="1">
                    <mxGeometry x="40" y="1440" width="120" height="60" as="geometry"/>
                </mxCell>
                <mxCell id="56" value="" style="edgeStyle=none;html=1;fontStyle=1" parent="1" source="53" target="55" edge="1">
                    <mxGeometry relative="1" as="geometry"/>
                </mxCell>
                <mxCell id="53" value="Fr체hst체ck erhalten" style="rounded=1;whiteSpace=wrap;html=1;" parent="1" vertex="1">
                    <mxGeometry x="40" y="1540" width="120" height="60" as="geometry"/>
                </mxCell>
                <mxCell id="59" value="[&lt;span style=&quot;font-size: 12px; background-color: rgb(42, 37, 47);&quot;&gt;Fr체hst체ck&lt;br&gt;erhalten==true]&lt;/span&gt;" style="edgeStyle=none;html=1;fontStyle=1" parent="1" source="55" target="58" edge="1">
                    <mxGeometry y="20" relative="1" as="geometry">
                        <mxPoint as="offset"/>
                    </mxGeometry>
                </mxCell>
                <mxCell id="66" value="&lt;br&gt;&lt;span style=&quot;color: rgb(240, 240, 240); font-family: Helvetica; font-size: 11px; font-style: normal; font-variant-ligatures: normal; font-variant-caps: normal; letter-spacing: normal; orphans: 2; text-align: center; text-indent: 0px; text-transform: none; widows: 2; word-spacing: 0px; -webkit-text-stroke-width: 0px; background-color: rgb(24, 20, 29); text-decoration-thickness: initial; text-decoration-style: initial; text-decoration-color: initial; float: none; display: inline !important;&quot;&gt;[&lt;/span&gt;&lt;span style=&quot;border-color: rgb(0, 0, 0); color: rgb(240, 240, 240); font-family: Helvetica; font-style: normal; font-variant-ligatures: normal; font-variant-caps: normal; letter-spacing: normal; orphans: 2; text-align: center; text-indent: 0px; text-transform: none; widows: 2; word-spacing: 0px; -webkit-text-stroke-width: 0px; text-decoration-thickness: initial; text-decoration-style: initial; text-decoration-color: initial; font-size: 12px; background-color: rgb(42, 37, 47);&quot;&gt;Fr체hst체ck&lt;br style=&quot;border-color: rgb(0, 0, 0);&quot;&gt;erhalten==false]&lt;/span&gt;&lt;br&gt;" style="edgeStyle=none;html=1;fontStyle=1" parent="1" source="55" target="64" edge="1">
                    <mxGeometry y="-50" relative="1" as="geometry">
                        <mxPoint as="offset"/>
                    </mxGeometry>
                </mxCell>
                <mxCell id="55" value="Abfrage Logik" style="shape=process;whiteSpace=wrap;html=1;backgroundOutline=1;" parent="1" vertex="1">
                    <mxGeometry x="40" y="1640" width="120" height="60" as="geometry"/>
                </mxCell>
                <mxCell id="61" value="" style="edgeStyle=none;html=1;fontStyle=1" parent="1" source="58" target="60" edge="1">
                    <mxGeometry relative="1" as="geometry"/>
                </mxCell>
                <mxCell id="58" value="An welchen Tagen Fr체hst체ck?" style="rounded=0;whiteSpace=wrap;html=1;" parent="1" vertex="1">
                    <mxGeometry x="240" y="1640" width="120" height="60" as="geometry"/>
                </mxCell>
                <mxCell id="65" style="edgeStyle=none;html=1;fontStyle=1" parent="1" source="60" target="64" edge="1">
                    <mxGeometry relative="1" as="geometry"/>
                </mxCell>
                <mxCell id="60" value="tage Fr체hst체ck erhalten" style="rounded=1;whiteSpace=wrap;html=1;" parent="1" vertex="1">
                    <mxGeometry x="441" y="1640" width="120" height="60" as="geometry"/>
                </mxCell>
                <mxCell id="69" value="" style="edgeStyle=none;html=1;fontStyle=1" parent="1" source="64" target="68" edge="1">
                    <mxGeometry relative="1" as="geometry"/>
                </mxCell>
                <mxCell id="64" value="Mittagessen erhalten?" style="rounded=0;whiteSpace=wrap;html=1;" parent="1" vertex="1">
                    <mxGeometry x="40" y="1740" width="120" height="60" as="geometry"/>
                </mxCell>
                <mxCell id="72" value="" style="edgeStyle=none;html=1;fontStyle=1" parent="1" source="68" target="71" edge="1">
                    <mxGeometry relative="1" as="geometry"/>
                </mxCell>
                <mxCell id="68" value="Mittagessen erhalten" style="rounded=1;whiteSpace=wrap;html=1;" parent="1" vertex="1">
                    <mxGeometry x="40" y="1840" width="120" height="60" as="geometry"/>
                </mxCell>
                <mxCell id="71" value="Abfrage Logik" style="shape=process;whiteSpace=wrap;html=1;backgroundOutline=1;" parent="1" vertex="1">
                    <mxGeometry x="40" y="1940" width="120" height="60" as="geometry"/>
                </mxCell>
                <mxCell id="75" value="[&lt;span style=&quot;font-size: 12px; background-color: rgb(42, 37, 47);&quot;&gt;Mittagessen&lt;br&gt;erhalten==true]&lt;/span&gt;" style="edgeStyle=none;html=1;fontStyle=1" parent="1" source="71" target="77" edge="1">
                    <mxGeometry y="20" relative="1" as="geometry">
                        <mxPoint x="160" y="1970" as="sourcePoint"/>
                        <mxPoint as="offset"/>
                    </mxGeometry>
                </mxCell>
                <mxCell id="76" value="" style="edgeStyle=none;html=1;fontStyle=1" parent="1" source="77" target="78" edge="1">
                    <mxGeometry relative="1" as="geometry"/>
                </mxCell>
                <mxCell id="77" value="An welchen Tagen Mittagessen?" style="rounded=0;whiteSpace=wrap;html=1;" parent="1" vertex="1">
                    <mxGeometry x="240" y="1940" width="120" height="60" as="geometry"/>
                </mxCell>
                <mxCell id="92" style="edgeStyle=none;html=1;fontStyle=1" parent="1" source="78" target="82" edge="1">
                    <mxGeometry relative="1" as="geometry"/>
                </mxCell>
                <mxCell id="78" value="tage Mittagessen erhalten" style="rounded=1;whiteSpace=wrap;html=1;" parent="1" vertex="1">
                    <mxGeometry x="441" y="1940" width="120" height="60" as="geometry"/>
                </mxCell>
                <mxCell id="80" value="&lt;br&gt;&lt;span style=&quot;color: rgb(240, 240, 240); font-family: Helvetica; font-size: 11px; font-style: normal; font-variant-ligatures: normal; font-variant-caps: normal; letter-spacing: normal; orphans: 2; text-align: center; text-indent: 0px; text-transform: none; widows: 2; word-spacing: 0px; -webkit-text-stroke-width: 0px; background-color: rgb(24, 20, 29); text-decoration-thickness: initial; text-decoration-style: initial; text-decoration-color: initial; float: none; display: inline !important;&quot;&gt;[&lt;/span&gt;&lt;span style=&quot;border-color: rgb(0, 0, 0); color: rgb(240, 240, 240); font-family: Helvetica; font-style: normal; font-variant-ligatures: normal; font-variant-caps: normal; letter-spacing: normal; orphans: 2; text-align: center; text-indent: 0px; text-transform: none; widows: 2; word-spacing: 0px; -webkit-text-stroke-width: 0px; text-decoration-thickness: initial; text-decoration-style: initial; text-decoration-color: initial; font-size: 12px; background-color: rgb(42, 37, 47);&quot;&gt;Mittagessen&lt;br style=&quot;border-color: rgb(0, 0, 0);&quot;&gt;erhalten==false]&lt;/span&gt;" style="edgeStyle=none;html=1;fontStyle=1" parent="1" source="71" target="82" edge="1">
                    <mxGeometry y="-50" relative="1" as="geometry">
                        <mxPoint x="100" y="2000" as="sourcePoint"/>
                        <mxPoint as="offset"/>
                    </mxGeometry>
                </mxCell>
                <mxCell id="81" value="" style="edgeStyle=none;html=1;fontStyle=1" parent="1" source="82" target="84" edge="1">
                    <mxGeometry relative="1" as="geometry"/>
                </mxCell>
                <mxCell id="82" value="Abendessen erhalten?" style="rounded=0;whiteSpace=wrap;html=1;" parent="1" vertex="1">
                    <mxGeometry x="40" y="2040" width="120" height="60" as="geometry"/>
                </mxCell>
                <mxCell id="83" value="" style="edgeStyle=none;html=1;fontStyle=1" parent="1" source="84" target="86" edge="1">
                    <mxGeometry relative="1" as="geometry"/>
                </mxCell>
                <mxCell id="84" value="Abendessen erhalten" style="rounded=1;whiteSpace=wrap;html=1;" parent="1" vertex="1">
                    <mxGeometry x="40" y="2140" width="120" height="60" as="geometry"/>
                </mxCell>
                <mxCell id="86" value="Abfrage Logik" style="shape=process;whiteSpace=wrap;html=1;backgroundOutline=1;" parent="1" vertex="1">
                    <mxGeometry x="40" y="2240" width="120" height="60" as="geometry"/>
                </mxCell>
                <mxCell id="87" value="[&lt;span style=&quot;font-size: 12px; background-color: rgb(42, 37, 47);&quot;&gt;Abendessen&lt;/span&gt;&lt;span style=&quot;font-size: 12px; background-color: rgb(42, 37, 47);&quot;&gt;&lt;br&gt;erhalten==true]&lt;/span&gt;" style="edgeStyle=none;html=1;fontStyle=1" parent="1" source="86" target="89" edge="1">
                    <mxGeometry y="40" relative="1" as="geometry">
                        <mxPoint x="160" y="2270" as="sourcePoint"/>
                        <mxPoint as="offset"/>
                    </mxGeometry>
                </mxCell>
                <mxCell id="88" value="" style="edgeStyle=none;html=1;fontStyle=1" parent="1" source="89" target="90" edge="1">
                    <mxGeometry relative="1" as="geometry"/>
                </mxCell>
                <mxCell id="89" value="An welchen Tagen Abendessen?" style="rounded=0;whiteSpace=wrap;html=1;" parent="1" vertex="1">
                    <mxGeometry x="240" y="2240" width="120" height="60" as="geometry"/>
                </mxCell>
                <mxCell id="90" value="tage Abendessen erhalten" style="rounded=1;whiteSpace=wrap;html=1;" parent="1" vertex="1">
                    <mxGeometry x="440" y="2240" width="120" height="60" as="geometry"/>
                </mxCell>
                <mxCell id="99" value="" style="edgeStyle=none;html=1;fontStyle=1" parent="1" source="93" target="98" edge="1">
                    <mxGeometry relative="1" as="geometry"/>
                </mxCell>
                <mxCell id="93" value="Flugticket kosten?" style="rounded=0;whiteSpace=wrap;html=1;" parent="1" vertex="1">
                    <mxGeometry x="40" y="2340" width="120" height="60" as="geometry"/>
                </mxCell>
                <mxCell id="103" value="" style="edgeStyle=none;html=1;fontStyle=1" parent="1" source="98" target="102" edge="1">
                    <mxGeometry relative="1" as="geometry"/>
                </mxCell>
                <mxCell id="98" value="Flugticket kosten" style="rounded=1;whiteSpace=wrap;html=1;" parent="1" vertex="1">
                    <mxGeometry x="40" y="3260" width="120" height="60" as="geometry"/>
                </mxCell>
                <mxCell id="106" value="" style="edgeStyle=none;html=1;fontStyle=1" parent="1" source="102" target="178" edge="1">
                    <mxGeometry relative="1" as="geometry">
                        <mxPoint x="240" y="3390" as="targetPoint"/>
                    </mxGeometry>
                </mxCell>
                <mxCell id="110" value="[&lt;span style=&quot;font-size: 12px; background-color: rgb(42, 37, 47);&quot;&gt;Flugticket kosten&lt;br&gt;==true]&lt;/span&gt;" style="edgeLabel;html=1;align=center;verticalAlign=middle;resizable=0;points=[];" parent="106" vertex="1" connectable="0">
                    <mxGeometry x="0.3762" y="2" relative="1" as="geometry">
                        <mxPoint x="-15" y="-28" as="offset"/>
                    </mxGeometry>
                </mxCell>
                <mxCell id="109" value="&lt;br&gt;&lt;span style=&quot;color: rgb(240, 240, 240); font-family: Helvetica; font-size: 11px; font-style: normal; font-variant-ligatures: normal; font-variant-caps: normal; letter-spacing: normal; orphans: 2; text-align: center; text-indent: 0px; text-transform: none; widows: 2; word-spacing: 0px; -webkit-text-stroke-width: 0px; background-color: rgb(24, 20, 29); text-decoration-thickness: initial; text-decoration-style: initial; text-decoration-color: initial; float: none; display: inline !important;&quot;&gt;[&lt;/span&gt;&lt;span style=&quot;border-color: rgb(0, 0, 0); color: rgb(240, 240, 240); font-family: Helvetica; font-style: normal; font-variant-ligatures: normal; font-variant-caps: normal; letter-spacing: normal; orphans: 2; text-align: center; text-indent: 0px; text-transform: none; widows: 2; word-spacing: 0px; -webkit-text-stroke-width: 0px; text-decoration-thickness: initial; text-decoration-style: initial; text-decoration-color: initial; font-size: 12px; background-color: rgb(42, 37, 47);&quot;&gt;Flugticket kosten&lt;br style=&quot;border-color: rgb(0, 0, 0);&quot;&gt;==false]&lt;/span&gt;&lt;br&gt;" style="edgeStyle=none;html=1;fontStyle=1" parent="1" target="108" edge="1">
                    <mxGeometry x="-0.0197" y="-51" relative="1" as="geometry">
                        <mxPoint x="101" y="3425" as="sourcePoint"/>
                        <mxPoint x="101" y="3463" as="targetPoint"/>
                        <mxPoint as="offset"/>
                    </mxGeometry>
                </mxCell>
                <mxCell id="102" value="Abfrage Logik" style="shape=process;whiteSpace=wrap;html=1;backgroundOutline=1;" parent="1" vertex="1">
                    <mxGeometry x="40" y="3360" width="120" height="60" as="geometry"/>
                </mxCell>
                <mxCell id="156" value="" style="edgeStyle=none;html=1;fontStyle=1" parent="1" target="155" edge="1">
                    <mxGeometry relative="1" as="geometry">
                        <mxPoint x="100" y="3764" as="sourcePoint"/>
                    </mxGeometry>
                </mxCell>
                <mxCell id="192" value="" style="edgeStyle=none;html=1;fontStyle=1" parent="1" source="108" target="155" edge="1">
                    <mxGeometry relative="1" as="geometry"/>
                </mxCell>
                <mxCell id="108" value="Bus/Zug Ticket kosten?" style="rounded=0;whiteSpace=wrap;html=1;" parent="1" vertex="1">
                    <mxGeometry x="40" y="3660" width="120" height="60" as="geometry"/>
                </mxCell>
                <mxCell id="136" value="&lt;span style=&quot;color: rgb(240, 240, 240); font-family: Helvetica; font-size: 11px; font-style: normal; font-variant-ligatures: normal; font-variant-caps: normal; letter-spacing: normal; orphans: 2; text-align: center; text-indent: 0px; text-transform: none; widows: 2; word-spacing: 0px; -webkit-text-stroke-width: 0px; background-color: rgb(24, 20, 29); text-decoration-thickness: initial; text-decoration-style: initial; text-decoration-color: initial; float: none; display: inline !important;&quot;&gt;[Bus/Zug&lt;/span&gt;&lt;span style=&quot;border-color: rgb(0, 0, 0); color: rgb(240, 240, 240); font-family: Helvetica; font-style: normal; font-variant-ligatures: normal; font-variant-caps: normal; letter-spacing: normal; orphans: 2; text-align: center; text-indent: 0px; text-transform: none; widows: 2; word-spacing: 0px; -webkit-text-stroke-width: 0px; text-decoration-thickness: initial; text-decoration-style: initial; text-decoration-color: initial; font-size: 12px; background-color: rgb(42, 37, 47);&quot;&gt;ticket&lt;br&gt;kosten==true]&lt;/span&gt;" style="edgeStyle=none;html=1;fontStyle=1" parent="1" source="138" target="200" edge="1">
                    <mxGeometry y="20" relative="1" as="geometry">
                        <mxPoint as="offset"/>
                        <mxPoint x="240" y="3894" as="targetPoint"/>
                    </mxGeometry>
                </mxCell>
                <mxCell id="137" value="&lt;br&gt;&lt;span style=&quot;border-color: rgb(0, 0, 0); color: rgb(240, 240, 240); font-family: Helvetica; font-size: 11px; font-style: normal; font-variant-ligatures: normal; font-variant-caps: normal; letter-spacing: normal; orphans: 2; text-align: center; text-indent: 0px; text-transform: none; widows: 2; word-spacing: 0px; -webkit-text-stroke-width: 0px; background-color: rgb(24, 20, 29); text-decoration-thickness: initial; text-decoration-style: initial; text-decoration-color: initial; float: none; display: inline !important;&quot;&gt;[Bus/Zug&lt;/span&gt;&lt;span style=&quot;border-color: rgb(0, 0, 0); color: rgb(240, 240, 240); font-family: Helvetica; font-style: normal; font-variant-ligatures: normal; font-variant-caps: normal; letter-spacing: normal; orphans: 2; text-align: center; text-indent: 0px; text-transform: none; widows: 2; word-spacing: 0px; -webkit-text-stroke-width: 0px; text-decoration-thickness: initial; text-decoration-style: initial; text-decoration-color: initial; font-size: 12px; background-color: rgb(42, 37, 47);&quot;&gt;ticket&lt;br style=&quot;border-color: rgb(0, 0, 0);&quot;&gt;kosten==false]&lt;/span&gt;&lt;br&gt;" style="edgeStyle=none;html=1;fontStyle=1" parent="1" source="138" target="145" edge="1">
                    <mxGeometry x="-0.5" y="-50" relative="1" as="geometry">
                        <mxPoint as="offset"/>
                    </mxGeometry>
                </mxCell>
                <mxCell id="138" value="Abfrage Logik" style="shape=process;whiteSpace=wrap;html=1;backgroundOutline=1;" parent="1" vertex="1">
                    <mxGeometry x="40" y="3864" width="120" height="60" as="geometry"/>
                </mxCell>
                <mxCell id="169" value="" style="edgeStyle=none;html=1;fontStyle=1" parent="1" source="145" target="168" edge="1">
                    <mxGeometry relative="1" as="geometry"/>
                </mxCell>
                <mxCell id="145" value="Taxifahrt kosten?" style="rounded=0;whiteSpace=wrap;html=1;" parent="1" vertex="1">
                    <mxGeometry x="40" y="4164" width="120" height="60" as="geometry"/>
                </mxCell>
                <mxCell id="157" value="" style="edgeStyle=none;html=1;fontStyle=1" parent="1" source="155" target="138" edge="1">
                    <mxGeometry relative="1" as="geometry"/>
                </mxCell>
                <mxCell id="155" value="Bus/Zugticket kosten" style="rounded=1;whiteSpace=wrap;html=1;" parent="1" vertex="1">
                    <mxGeometry x="40" y="3764" width="120" height="60" as="geometry"/>
                </mxCell>
                <mxCell id="159" value="&lt;br&gt;&lt;span style=&quot;border-color: rgb(0, 0, 0); color: rgb(240, 240, 240); font-family: Helvetica; font-size: 11px; font-style: normal; font-variant-ligatures: normal; font-variant-caps: normal; letter-spacing: normal; orphans: 2; text-align: center; text-indent: 0px; text-transform: none; widows: 2; word-spacing: 0px; -webkit-text-stroke-width: 0px; background-color: rgb(24, 20, 29); text-decoration-thickness: initial; text-decoration-style: initial; text-decoration-color: initial; float: none; display: inline !important;&quot;&gt;[Taxisfahrt kosten&lt;/span&gt;&lt;span style=&quot;border-color: rgb(0, 0, 0); color: rgb(240, 240, 240); font-family: Helvetica; font-style: normal; font-variant-ligatures: normal; font-variant-caps: normal; letter-spacing: normal; orphans: 2; text-align: center; text-indent: 0px; text-transform: none; widows: 2; word-spacing: 0px; -webkit-text-stroke-width: 0px; text-decoration-thickness: initial; text-decoration-style: initial; text-decoration-color: initial; font-size: 12px; background-color: rgb(42, 37, 47);&quot;&gt;&lt;br style=&quot;border-color: rgb(0, 0, 0);&quot;&gt;kosten==true]&lt;/span&gt;&lt;br&gt;" style="edgeStyle=none;html=1;fontStyle=1" parent="1" source="162" target="223" edge="1">
                    <mxGeometry y="40" relative="1" as="geometry">
                        <mxPoint as="offset"/>
                        <mxPoint x="240" y="4392" as="targetPoint"/>
                    </mxGeometry>
                </mxCell>
                <mxCell id="160" value="" style="edgeStyle=none;html=1;fontStyle=1" parent="1" source="162" target="239" edge="1">
                    <mxGeometry relative="1" as="geometry">
                        <mxPoint x="100" y="4462" as="targetPoint"/>
                    </mxGeometry>
                </mxCell>
                <mxCell id="161" value="[Taxisfahrt kosten&lt;span style=&quot;font-size: 12px; background-color: rgb(42, 37, 47);&quot;&gt;&lt;br&gt;kosten==false]&lt;/span&gt;" style="edgeLabel;html=1;align=center;verticalAlign=middle;resizable=0;points=[];" parent="160" vertex="1" connectable="0">
                    <mxGeometry x="-0.55" y="1" relative="1" as="geometry">
                        <mxPoint x="-51" y="11" as="offset"/>
                    </mxGeometry>
                </mxCell>
                <mxCell id="162" value="Abfrage Logik" style="shape=process;whiteSpace=wrap;html=1;backgroundOutline=1;" parent="1" vertex="1">
                    <mxGeometry x="40" y="4362" width="120" height="60" as="geometry"/>
                </mxCell>
                <mxCell id="170" value="" style="edgeStyle=none;html=1;fontStyle=1" parent="1" source="168" target="162" edge="1">
                    <mxGeometry relative="1" as="geometry"/>
                </mxCell>
                <mxCell id="168" value="Taxifahrt kosten" style="rounded=1;whiteSpace=wrap;html=1;" parent="1" vertex="1">
                    <mxGeometry x="40" y="4262" width="120" height="60" as="geometry"/>
                </mxCell>
                <mxCell id="174" value="" style="edgeStyle=none;html=1;fontStyle=1" parent="1" source="175" target="176" edge="1">
                    <mxGeometry relative="1" as="geometry"/>
                </mxCell>
                <mxCell id="175" value="Flugzeugticket preis?" style="rounded=0;whiteSpace=wrap;html=1;" parent="1" vertex="1">
                    <mxGeometry x="441" y="3458" width="120" height="60" as="geometry"/>
                </mxCell>
                <mxCell id="184" value="" style="edgeStyle=none;html=1;fontStyle=1" parent="1" source="176" target="183" edge="1">
                    <mxGeometry relative="1" as="geometry"/>
                </mxCell>
                <mxCell id="176" value="Flugzeugticket preis" style="rounded=1;whiteSpace=wrap;html=1;" parent="1" vertex="1">
                    <mxGeometry x="642" y="3458" width="120" height="60" as="geometry"/>
                </mxCell>
                <mxCell id="180" value="" style="edgeStyle=none;html=1;fontStyle=1" parent="1" source="178" target="179" edge="1">
                    <mxGeometry relative="1" as="geometry"/>
                </mxCell>
                <mxCell id="178" value="Welcher Tag Flugzeugticket kosten?" style="rounded=0;whiteSpace=wrap;html=1;" parent="1" vertex="1">
                    <mxGeometry x="240" y="3360" width="120" height="60" as="geometry"/>
                </mxCell>
                <mxCell id="181" value="" style="edgeStyle=none;html=1;fontStyle=1" parent="1" source="179" target="175" edge="1">
                    <mxGeometry relative="1" as="geometry"/>
                </mxCell>
                <mxCell id="179" value="Tag Flugzeugticket kosten" style="rounded=1;whiteSpace=wrap;html=1;" parent="1" vertex="1">
                    <mxGeometry x="441" y="3360" width="120" height="60" as="geometry"/>
                </mxCell>
                <mxCell id="186" value="" style="edgeStyle=none;html=1;fontStyle=1" parent="1" source="183" target="185" edge="1">
                    <mxGeometry relative="1" as="geometry"/>
                </mxCell>
                <mxCell id="183" value="Weiterer Tag Flugzeugticket kosten?" style="rounded=0;whiteSpace=wrap;html=1;" parent="1" vertex="1">
                    <mxGeometry x="642" y="3560" width="120" height="60" as="geometry"/>
                </mxCell>
                <mxCell id="191" style="edgeStyle=none;html=1;fontStyle=1" parent="1" source="185" target="188" edge="1">
                    <mxGeometry relative="1" as="geometry"/>
                </mxCell>
                <mxCell id="185" value="weiterer Tag Flugzeugticket kosten" style="rounded=1;whiteSpace=wrap;html=1;" parent="1" vertex="1">
                    <mxGeometry x="840" y="3560" width="120" height="60" as="geometry"/>
                </mxCell>
                <mxCell id="189" style="edgeStyle=none;html=1;fontStyle=1" parent="1" source="188" target="178" edge="1">
                    <mxGeometry relative="1" as="geometry">
                        <Array as="points">
                            <mxPoint x="1120" y="3690"/>
                            <mxPoint x="1120" y="3320"/>
                            <mxPoint x="300" y="3320"/>
                        </Array>
                    </mxGeometry>
                </mxCell>
                <mxCell id="212" value="[weiterer Tag Flugzeugticket kosten==true]" style="edgeLabel;html=1;align=center;verticalAlign=middle;resizable=0;points=[];" parent="189" vertex="1" connectable="0">
                    <mxGeometry x="0.3398" y="-1" relative="1" as="geometry">
                        <mxPoint x="324" y="381" as="offset"/>
                    </mxGeometry>
                </mxCell>
                <mxCell id="190" style="edgeStyle=none;html=1;fontStyle=1" parent="1" source="188" target="108" edge="1">
                    <mxGeometry relative="1" as="geometry"/>
                </mxCell>
                <mxCell id="213" value="[weiterer Tag Flugzeugticket kosten==false]" style="edgeLabel;html=1;align=center;verticalAlign=middle;resizable=0;points=[];" parent="190" vertex="1" connectable="0">
                    <mxGeometry x="-0.6911" y="4" relative="1" as="geometry">
                        <mxPoint x="-21" y="6" as="offset"/>
                    </mxGeometry>
                </mxCell>
                <mxCell id="188" value="Abfrage Logik" style="shape=process;whiteSpace=wrap;html=1;backgroundOutline=1;" parent="1" vertex="1">
                    <mxGeometry x="840" y="3660" width="120" height="60" as="geometry"/>
                </mxCell>
                <mxCell id="194" value="" style="edgeStyle=none;html=1;fontStyle=1" parent="1" source="195" target="197" edge="1">
                    <mxGeometry relative="1" as="geometry"/>
                </mxCell>
                <mxCell id="195" value="Bus/Zugticket preis?" style="rounded=0;whiteSpace=wrap;html=1;" parent="1" vertex="1">
                    <mxGeometry x="440.99999999999994" y="3962" width="120" height="60" as="geometry"/>
                </mxCell>
                <mxCell id="196" value="" style="edgeStyle=none;html=1;fontStyle=1" parent="1" source="197" target="205" edge="1">
                    <mxGeometry relative="1" as="geometry"/>
                </mxCell>
                <mxCell id="197" value="Bus/Zugticket preis" style="rounded=1;whiteSpace=wrap;html=1;" parent="1" vertex="1">
                    <mxGeometry x="642" y="3962" width="120" height="60" as="geometry"/>
                </mxCell>
                <mxCell id="199" value="" style="edgeStyle=none;html=1;fontStyle=1" parent="1" source="200" target="202" edge="1">
                    <mxGeometry relative="1" as="geometry"/>
                </mxCell>
                <mxCell id="200" value="Welcher Tag Bus/Zugticket kosten?" style="rounded=0;whiteSpace=wrap;html=1;" parent="1" vertex="1">
                    <mxGeometry x="239.99999999999994" y="3864" width="120" height="60" as="geometry"/>
                </mxCell>
                <mxCell id="201" value="" style="edgeStyle=none;html=1;fontStyle=1" parent="1" source="202" target="195" edge="1">
                    <mxGeometry relative="1" as="geometry"/>
                </mxCell>
                <mxCell id="202" value="Tag Bus/Zugticket kosten" style="rounded=1;whiteSpace=wrap;html=1;" parent="1" vertex="1">
                    <mxGeometry x="440.99999999999994" y="3864" width="120" height="60" as="geometry"/>
                </mxCell>
                <mxCell id="204" value="" style="edgeStyle=none;html=1;fontStyle=1" parent="1" source="205" target="207" edge="1">
                    <mxGeometry relative="1" as="geometry"/>
                </mxCell>
                <mxCell id="205" value="Weiterer Tag Bus/Zugticket kosten?" style="rounded=0;whiteSpace=wrap;html=1;" parent="1" vertex="1">
                    <mxGeometry x="642" y="4064" width="120" height="60" as="geometry"/>
                </mxCell>
                <mxCell id="206" style="edgeStyle=none;html=1;fontStyle=1" parent="1" source="207" target="210" edge="1">
                    <mxGeometry relative="1" as="geometry"/>
                </mxCell>
                <mxCell id="207" value="weiterer Tag Bus/Zugticket kosten" style="rounded=1;whiteSpace=wrap;html=1;" parent="1" vertex="1">
                    <mxGeometry x="840" y="4064" width="120" height="60" as="geometry"/>
                </mxCell>
                <mxCell id="209" style="edgeStyle=none;html=1;fontStyle=1" parent="1" source="210" target="200" edge="1">
                    <mxGeometry relative="1" as="geometry">
                        <Array as="points">
                            <mxPoint x="1120" y="4194"/>
                            <mxPoint x="1120" y="3820"/>
                            <mxPoint x="299.99999999999994" y="3824"/>
                        </Array>
                    </mxGeometry>
                </mxCell>
                <mxCell id="214" value="[weiterer Tag&amp;nbsp;&lt;span style=&quot;font-size: 12px; background-color: rgb(42, 37, 47);&quot;&gt;Bus/Zugticket&lt;/span&gt;&lt;br&gt;&amp;nbsp;kosten==true]" style="edgeLabel;html=1;align=center;verticalAlign=middle;resizable=0;points=[];" parent="209" vertex="1" connectable="0">
                    <mxGeometry x="-0.8428" y="-2" relative="1" as="geometry">
                        <mxPoint x="-27" y="14" as="offset"/>
                    </mxGeometry>
                </mxCell>
                <mxCell id="215" style="edgeStyle=none;html=1;fontStyle=1" parent="1" source="210" target="145" edge="1">
                    <mxGeometry relative="1" as="geometry"/>
                </mxCell>
                <mxCell id="238" value="[weiterer Tag&amp;nbsp;&lt;span style=&quot;font-size: 12px; background-color: rgb(42, 37, 47);&quot;&gt;Bus/Zugticket&amp;nbsp;&lt;/span&gt;kosten==false]" style="edgeLabel;html=1;align=center;verticalAlign=middle;resizable=0;points=[];" parent="215" vertex="1" connectable="0">
                    <mxGeometry x="-0.6296" y="-4" relative="1" as="geometry">
                        <mxPoint x="-1" y="20" as="offset"/>
                    </mxGeometry>
                </mxCell>
                <mxCell id="210" value="Abfrage Logik" style="shape=process;whiteSpace=wrap;html=1;backgroundOutline=1;" parent="1" vertex="1">
                    <mxGeometry x="840" y="4164" width="120" height="60" as="geometry"/>
                </mxCell>
                <mxCell id="217" value="" style="edgeStyle=none;html=1;fontStyle=1" parent="1" source="218" target="220" edge="1">
                    <mxGeometry relative="1" as="geometry"/>
                </mxCell>
                <mxCell id="218" value="&lt;span style=&quot;font-size: 11px; background-color: rgb(24, 20, 29);&quot;&gt;Taxisfahrt&lt;/span&gt;&amp;nbsp;preis?" style="rounded=0;whiteSpace=wrap;html=1;" parent="1" vertex="1">
                    <mxGeometry x="441" y="4460" width="120" height="60" as="geometry"/>
                </mxCell>
                <mxCell id="219" value="" style="edgeStyle=none;html=1;fontStyle=1" parent="1" source="220" target="228" edge="1">
                    <mxGeometry relative="1" as="geometry"/>
                </mxCell>
                <mxCell id="220" value="&lt;span style=&quot;font-size: 11px; background-color: rgb(24, 20, 29);&quot;&gt;Taxisfahrt&lt;/span&gt;&amp;nbsp;preis" style="rounded=1;whiteSpace=wrap;html=1;" parent="1" vertex="1">
                    <mxGeometry x="642" y="4460" width="120" height="60" as="geometry"/>
                </mxCell>
                <mxCell id="222" value="" style="edgeStyle=none;html=1;fontStyle=1" parent="1" source="223" target="225" edge="1">
                    <mxGeometry relative="1" as="geometry"/>
                </mxCell>
                <mxCell id="223" value="Welcher Tag&amp;nbsp;&lt;span style=&quot;font-size: 11px; background-color: rgb(24, 20, 29);&quot;&gt;Taxisfahrt&amp;nbsp;&lt;/span&gt;&lt;br&gt;kosten?" style="rounded=0;whiteSpace=wrap;html=1;" parent="1" vertex="1">
                    <mxGeometry x="239.99999999999994" y="4362" width="120" height="60" as="geometry"/>
                </mxCell>
                <mxCell id="224" value="" style="edgeStyle=none;html=1;fontStyle=1" parent="1" source="225" target="218" edge="1">
                    <mxGeometry relative="1" as="geometry"/>
                </mxCell>
                <mxCell id="225" value="Tag&amp;nbsp;&lt;span style=&quot;font-size: 11px; background-color: rgb(24, 20, 29);&quot;&gt;Taxisfahrt&lt;/span&gt;&amp;nbsp;kosten" style="rounded=1;whiteSpace=wrap;html=1;" parent="1" vertex="1">
                    <mxGeometry x="441" y="4362" width="120" height="60" as="geometry"/>
                </mxCell>
                <mxCell id="227" value="" style="edgeStyle=none;html=1;fontStyle=1" parent="1" source="228" target="230" edge="1">
                    <mxGeometry relative="1" as="geometry"/>
                </mxCell>
                <mxCell id="228" value="Weiterer Tag&amp;nbsp;&lt;span style=&quot;font-size: 11px; background-color: rgb(24, 20, 29);&quot;&gt;Taxisfahrt&lt;/span&gt;&amp;nbsp;kosten?" style="rounded=0;whiteSpace=wrap;html=1;" parent="1" vertex="1">
                    <mxGeometry x="642" y="4562" width="120" height="60" as="geometry"/>
                </mxCell>
                <mxCell id="229" style="edgeStyle=none;html=1;fontStyle=1" parent="1" source="230" target="235" edge="1">
                    <mxGeometry relative="1" as="geometry"/>
                </mxCell>
                <mxCell id="230" value="weiterer Tag&amp;nbsp;&lt;span style=&quot;font-size: 11px; background-color: rgb(24, 20, 29);&quot;&gt;Taxisfahrt&lt;/span&gt;&amp;nbsp;kosten" style="rounded=1;whiteSpace=wrap;html=1;" parent="1" vertex="1">
                    <mxGeometry x="840" y="4562" width="120" height="60" as="geometry"/>
                </mxCell>
                <mxCell id="232" style="edgeStyle=none;html=1;fontStyle=1" parent="1" source="235" target="223" edge="1">
                    <mxGeometry relative="1" as="geometry">
                        <Array as="points">
                            <mxPoint x="1120" y="4692"/>
                            <mxPoint x="1120" y="4322"/>
                            <mxPoint x="299.99999999999994" y="4322"/>
                        </Array>
                    </mxGeometry>
                </mxCell>
                <mxCell id="233" value="[weiterer Tag Taxisfahrt&lt;br&gt;&amp;nbsp;kosten==true]" style="edgeLabel;html=1;align=center;verticalAlign=middle;resizable=0;points=[];" parent="232" vertex="1" connectable="0">
                    <mxGeometry x="-0.8428" y="-2" relative="1" as="geometry">
                        <mxPoint x="-27" y="14" as="offset"/>
                    </mxGeometry>
                </mxCell>
                <mxCell id="234" style="edgeStyle=none;html=1;fontStyle=1" parent="1" source="235" target="239" edge="1">
                    <mxGeometry relative="1" as="geometry">
                        <mxPoint x="160" y="4692" as="targetPoint"/>
                    </mxGeometry>
                </mxCell>
                <mxCell id="236" value="[weiterer Tag Taxisfahrt&lt;br&gt;&amp;nbsp;kosten==false]" style="edgeLabel;html=1;align=center;verticalAlign=middle;resizable=0;points=[];" parent="234" vertex="1" connectable="0">
                    <mxGeometry x="-0.5995" y="4" relative="1" as="geometry">
                        <mxPoint x="47" y="14" as="offset"/>
                    </mxGeometry>
                </mxCell>
                <mxCell id="235" value="Abfrage Logik" style="shape=process;whiteSpace=wrap;html=1;backgroundOutline=1;" parent="1" vertex="1">
                    <mxGeometry x="840" y="4662" width="120" height="60" as="geometry"/>
                </mxCell>
                <mxCell id="242" value="" style="edgeStyle=none;html=1;fontStyle=1" parent="1" source="239" target="240" edge="1">
                    <mxGeometry relative="1" as="geometry"/>
                </mxCell>
                <mxCell id="239" value="mit privat PKW gefahren?" style="rounded=0;whiteSpace=wrap;html=1;" parent="1" vertex="1">
                    <mxGeometry x="39.99999999999994" y="4662" width="120" height="60" as="geometry"/>
                </mxCell>
                <mxCell id="245" value="" style="edgeStyle=none;html=1;fontStyle=1" parent="1" source="240" target="243" edge="1">
                    <mxGeometry relative="1" as="geometry"/>
                </mxCell>
                <mxCell id="240" value="mit privat PKW gefahren" style="rounded=1;whiteSpace=wrap;html=1;" parent="1" vertex="1">
                    <mxGeometry x="40" y="4760" width="120" height="60" as="geometry"/>
                </mxCell>
                <mxCell id="247" value="" style="edgeStyle=none;html=1;fontStyle=1" parent="1" source="243" target="246" edge="1">
                    <mxGeometry relative="1" as="geometry"/>
                </mxCell>
                <mxCell id="275" style="edgeStyle=none;html=1;fontStyle=1" parent="1" source="243" target="274" edge="1">
                    <mxGeometry relative="1" as="geometry"/>
                </mxCell>
                <mxCell id="243" value="Abfrage Logik" style="shape=process;whiteSpace=wrap;html=1;backgroundOutline=1;" parent="1" vertex="1">
                    <mxGeometry x="40" y="4860" width="120" height="60" as="geometry"/>
                </mxCell>
                <mxCell id="249" value="" style="edgeStyle=none;html=1;fontStyle=1" parent="1" source="246" target="248" edge="1">
                    <mxGeometry relative="1" as="geometry"/>
                </mxCell>
                <mxCell id="246" value="&lt;span style=&quot;font-size: 11px; background-color: rgb(24, 20, 29);&quot;&gt;Welcher Tag mit privat PKW gefahren?&lt;/span&gt;" style="rounded=0;whiteSpace=wrap;html=1;" parent="1" vertex="1">
                    <mxGeometry x="240" y="4860" width="120" height="60" as="geometry"/>
                </mxCell>
                <mxCell id="253" value="" style="edgeStyle=none;html=1;fontStyle=1" parent="1" source="248" target="252" edge="1">
                    <mxGeometry relative="1" as="geometry"/>
                </mxCell>
                <mxCell id="248" value="&lt;span style=&quot;font-size: 11px; background-color: rgb(24, 20, 29);&quot;&gt;Tag mit privaten PKW gefahren&lt;/span&gt;" style="rounded=1;whiteSpace=wrap;html=1;" parent="1" vertex="1">
                    <mxGeometry x="441" y="4860" width="120" height="60" as="geometry"/>
                </mxCell>
                <mxCell id="255" value="" style="edgeStyle=none;html=1;fontStyle=1" parent="1" source="252" target="254" edge="1">
                    <mxGeometry relative="1" as="geometry"/>
                </mxCell>
                <mxCell id="252" value="&lt;span style=&quot;font-size: 11px; background-color: rgb(24, 20, 29);&quot;&gt;Wie viele KM gefahren?&lt;/span&gt;" style="rounded=0;whiteSpace=wrap;html=1;" parent="1" vertex="1">
                    <mxGeometry x="441" y="4960" width="120" height="60" as="geometry"/>
                </mxCell>
                <mxCell id="258" value="" style="edgeStyle=none;html=1;fontStyle=1" parent="1" source="254" target="257" edge="1">
                    <mxGeometry relative="1" as="geometry"/>
                </mxCell>
                <mxCell id="254" value="&lt;span style=&quot;font-size: 11px; background-color: rgb(24, 20, 29);&quot;&gt;gefahrene KM&lt;/span&gt;" style="rounded=1;whiteSpace=wrap;html=1;" parent="1" vertex="1">
                    <mxGeometry x="642" y="4960" width="120" height="60" as="geometry"/>
                </mxCell>
                <mxCell id="260" value="" style="edgeStyle=none;html=1;fontStyle=1" parent="1" source="257" target="259" edge="1">
                    <mxGeometry relative="1" as="geometry"/>
                </mxCell>
                <mxCell id="257" value="&lt;span style=&quot;font-size: 11px; background-color: rgb(24, 20, 29);&quot;&gt;Einzele Wegstrecken angeben mit KM&lt;/span&gt;" style="rounded=0;whiteSpace=wrap;html=1;" parent="1" vertex="1">
                    <mxGeometry x="642" y="5060" width="120" height="60" as="geometry"/>
                </mxCell>
                <mxCell id="263" style="edgeStyle=none;html=1;fontStyle=1" parent="1" source="259" target="262" edge="1">
                    <mxGeometry relative="1" as="geometry"/>
                </mxCell>
                <mxCell id="259" value="&lt;span style=&quot;font-size: 11px; background-color: rgb(24, 20, 29);&quot;&gt;einzelen Wegstrecken mit KM&lt;/span&gt;" style="rounded=1;whiteSpace=wrap;html=1;" parent="1" vertex="1">
                    <mxGeometry x="840" y="5060" width="120" height="60" as="geometry"/>
                </mxCell>
                <mxCell id="265" value="" style="edgeStyle=none;html=1;fontStyle=1" parent="1" source="262" target="264" edge="1">
                    <mxGeometry relative="1" as="geometry"/>
                </mxCell>
                <mxCell id="262" value="&lt;span style=&quot;font-size: 11px; background-color: rgb(24, 20, 29);&quot;&gt;Weiterer tag mit privaten PKW gefahren?&lt;/span&gt;" style="rounded=0;whiteSpace=wrap;html=1;" parent="1" vertex="1">
                    <mxGeometry x="840" y="5160" width="120" height="60" as="geometry"/>
                </mxCell>
                <mxCell id="268" style="edgeStyle=none;html=1;fontStyle=1" parent="1" source="264" target="267" edge="1">
                    <mxGeometry relative="1" as="geometry"/>
                </mxCell>
                <mxCell id="264" value="&lt;span style=&quot;font-size: 11px; background-color: rgb(24, 20, 29);&quot;&gt;Weiterer tag mit privaten PKW gefahren&lt;/span&gt;" style="rounded=1;whiteSpace=wrap;html=1;" parent="1" vertex="1">
                    <mxGeometry x="1040" y="5160" width="120" height="60" as="geometry"/>
                </mxCell>
                <mxCell id="269" style="edgeStyle=none;html=1;fontStyle=1" parent="1" source="267" target="246" edge="1">
                    <mxGeometry relative="1" as="geometry">
                        <Array as="points">
                            <mxPoint x="1320" y="5290"/>
                            <mxPoint x="1320" y="4800"/>
                            <mxPoint x="300" y="4800"/>
                        </Array>
                    </mxGeometry>
                </mxCell>
                <mxCell id="272" value="[&lt;span style=&quot;&quot;&gt;Weiterer tag mit privaten PKW gefahren==ture]&lt;/span&gt;" style="edgeLabel;html=1;align=center;verticalAlign=middle;resizable=0;points=[];" parent="269" vertex="1" connectable="0">
                    <mxGeometry x="-0.9394" y="1" relative="1" as="geometry">
                        <mxPoint x="70" y="11" as="offset"/>
                    </mxGeometry>
                </mxCell>
                <mxCell id="270" style="edgeStyle=none;html=1;fontStyle=1" parent="1" source="267" target="274" edge="1">
                    <mxGeometry relative="1" as="geometry">
                        <mxPoint x="180" y="5290" as="targetPoint"/>
                    </mxGeometry>
                </mxCell>
                <mxCell id="273" value="[Weiterer tag mit privaten PKW gefahren==false]" style="edgeLabel;html=1;align=center;verticalAlign=middle;resizable=0;points=[];" parent="270" vertex="1" connectable="0">
                    <mxGeometry x="-0.7279" y="5" relative="1" as="geometry">
                        <mxPoint x="-33" y="5" as="offset"/>
                    </mxGeometry>
                </mxCell>
                <mxCell id="267" value="Abfrage Logik" style="shape=process;whiteSpace=wrap;html=1;backgroundOutline=1;" parent="1" vertex="1">
                    <mxGeometry x="1040" y="5260" width="120" height="60" as="geometry"/>
                </mxCell>
                <mxCell id="277" value="" style="edgeStyle=none;html=1;fontStyle=1" parent="1" source="274" target="276" edge="1">
                    <mxGeometry relative="1" as="geometry"/>
                </mxCell>
                <mxCell id="274" value="&lt;span style=&quot;font-size: 11px; background-color: rgb(24, 20, 29);&quot;&gt;Privat 체bernachtet?&lt;/span&gt;" style="rounded=0;whiteSpace=wrap;html=1;" parent="1" vertex="1">
                    <mxGeometry x="40" y="5260" width="120" height="60" as="geometry"/>
                </mxCell>
                <mxCell id="280" value="" style="edgeStyle=none;html=1;fontStyle=1" parent="1" source="276" target="279" edge="1">
                    <mxGeometry relative="1" as="geometry"/>
                </mxCell>
                <mxCell id="276" value="&lt;span style=&quot;font-size: 11px; background-color: rgb(24, 20, 29);&quot;&gt;Privat 체bernachtet&lt;/span&gt;" style="rounded=1;whiteSpace=wrap;html=1;" parent="1" vertex="1">
                    <mxGeometry x="40" y="5360" width="120" height="60" as="geometry"/>
                </mxCell>
                <mxCell id="278" value="&lt;div style=&quot;text-align: center;&quot;&gt;&lt;span style=&quot;font-size: 11px; background-color: rgb(24, 20, 29);&quot;&gt;Privat 체bernachtet&lt;/span&gt;&lt;br&gt;&lt;/div&gt;" style="shape=curlyBracket;whiteSpace=wrap;html=1;rounded=1;flipH=1;labelPosition=right;verticalLabelPosition=middle;align=left;verticalAlign=middle;size=0.5;" parent="1" vertex="1">
                    <mxGeometry x="170" y="5360" width="20" height="60" as="geometry"/>
                </mxCell>
                <mxCell id="282" value="[Privat 체bernachtet&lt;br&gt;==true]" style="edgeStyle=none;html=1;fontStyle=1" parent="1" source="279" target="281" edge="1">
                    <mxGeometry y="30" relative="1" as="geometry">
                        <mxPoint as="offset"/>
                    </mxGeometry>
                </mxCell>
                <mxCell id="287" value="&lt;span style=&quot;color: rgb(240, 240, 240); font-family: Helvetica; font-size: 11px; font-style: normal; font-variant-ligatures: normal; font-variant-caps: normal; letter-spacing: normal; orphans: 2; text-align: center; text-indent: 0px; text-transform: none; widows: 2; word-spacing: 0px; -webkit-text-stroke-width: 0px; background-color: rgb(24, 20, 29); text-decoration-thickness: initial; text-decoration-style: initial; text-decoration-color: initial; float: none; display: inline !important;&quot;&gt;[Privat 체bernachtet&lt;/span&gt;&lt;br style=&quot;border-color: rgb(0, 0, 0); color: rgb(240, 240, 240); font-family: Helvetica; font-size: 11px; font-style: normal; font-variant-ligatures: normal; font-variant-caps: normal; letter-spacing: normal; orphans: 2; text-align: center; text-indent: 0px; text-transform: none; widows: 2; word-spacing: 0px; -webkit-text-stroke-width: 0px; text-decoration-thickness: initial; text-decoration-style: initial; text-decoration-color: initial;&quot;&gt;&lt;span style=&quot;color: rgb(240, 240, 240); font-family: Helvetica; font-size: 11px; font-style: normal; font-variant-ligatures: normal; font-variant-caps: normal; letter-spacing: normal; orphans: 2; text-align: center; text-indent: 0px; text-transform: none; widows: 2; word-spacing: 0px; -webkit-text-stroke-width: 0px; background-color: rgb(24, 20, 29); text-decoration-thickness: initial; text-decoration-style: initial; text-decoration-color: initial; float: none; display: inline !important;&quot;&gt;==false]&lt;/span&gt;" style="edgeStyle=none;html=1;fontStyle=1" parent="1" source="279" target="286" edge="1">
                    <mxGeometry y="-50" relative="1" as="geometry">
                        <mxPoint as="offset"/>
                    </mxGeometry>
                </mxCell>
                <mxCell id="279" value="Abfrage Logik" style="shape=process;whiteSpace=wrap;html=1;backgroundOutline=1;" parent="1" vertex="1">
                    <mxGeometry x="40" y="5460" width="120" height="60" as="geometry"/>
                </mxCell>
                <mxCell id="284" value="" style="edgeStyle=none;html=1;fontStyle=1" parent="1" source="281" target="283" edge="1">
                    <mxGeometry relative="1" as="geometry"/>
                </mxCell>
                <mxCell id="281" value="&lt;span style=&quot;font-size: 11px; background-color: rgb(24, 20, 29);&quot;&gt;an welchen Tagen Privat 체bernachtet?&lt;/span&gt;" style="rounded=0;whiteSpace=wrap;html=1;" parent="1" vertex="1">
                    <mxGeometry x="240" y="5460" width="120" height="60" as="geometry"/>
                </mxCell>
                <mxCell id="288" style="edgeStyle=none;html=1;fontStyle=1" parent="1" source="283" target="286" edge="1">
                    <mxGeometry relative="1" as="geometry"/>
                </mxCell>
                <mxCell id="283" value="&lt;span style=&quot;font-size: 11px; background-color: rgb(24, 20, 29);&quot;&gt;tage Private 체bernachtet&lt;/span&gt;" style="rounded=1;whiteSpace=wrap;html=1;" parent="1" vertex="1">
                    <mxGeometry x="440" y="5460" width="120" height="60" as="geometry"/>
                </mxCell>
                <mxCell id="290" value="" style="edgeStyle=none;html=1;fontStyle=1" parent="1" source="286" target="289" edge="1">
                    <mxGeometry relative="1" as="geometry"/>
                </mxCell>
                <mxCell id="286" value="&lt;span style=&quot;font-size: 11px; background-color: rgb(24, 20, 29);&quot;&gt;Hotelkosten?&lt;/span&gt;" style="rounded=0;whiteSpace=wrap;html=1;" parent="1" vertex="1">
                    <mxGeometry x="40" y="5560" width="120" height="60" as="geometry"/>
                </mxCell>
                <mxCell id="293" value="" style="edgeStyle=none;html=1;fontStyle=1" parent="1" source="289" target="292" edge="1">
                    <mxGeometry relative="1" as="geometry"/>
                </mxCell>
                <mxCell id="289" value="&lt;span style=&quot;font-size: 11px; background-color: rgb(24, 20, 29);&quot;&gt;Hotelkosten&lt;/span&gt;" style="rounded=1;whiteSpace=wrap;html=1;" parent="1" vertex="1">
                    <mxGeometry x="40" y="5660" width="120" height="60" as="geometry"/>
                </mxCell>
                <mxCell id="295" value="" style="edgeStyle=none;html=1;fontStyle=1" parent="1" source="292" edge="1">
                    <mxGeometry relative="1" as="geometry">
                        <mxPoint x="240" y="5789.999999999999" as="targetPoint"/>
                    </mxGeometry>
                </mxCell>
                <mxCell id="323" style="edgeStyle=none;html=1;fontStyle=1" parent="1" source="292" target="308" edge="1">
                    <mxGeometry relative="1" as="geometry"/>
                </mxCell>
                <mxCell id="356" value="[Hotelkosten&lt;br&gt;==true]" style="edgeLabel;html=1;align=center;verticalAlign=middle;resizable=0;points=[];" parent="323" vertex="1" connectable="0">
                    <mxGeometry x="-0.5357" y="-3" relative="1" as="geometry">
                        <mxPoint x="21" y="-23" as="offset"/>
                    </mxGeometry>
                </mxCell>
                <mxCell id="326" style="edgeStyle=none;html=1;fontStyle=1" parent="1" source="292" target="322" edge="1">
                    <mxGeometry relative="1" as="geometry"/>
                </mxCell>
                <mxCell id="357" value="[Hotelkosten&lt;br&gt;==false]" style="edgeLabel;html=1;align=center;verticalAlign=middle;resizable=0;points=[];" parent="326" vertex="1" connectable="0">
                    <mxGeometry x="-0.1988" y="3" relative="1" as="geometry">
                        <mxPoint x="-43" y="-76" as="offset"/>
                    </mxGeometry>
                </mxCell>
                <mxCell id="292" value="Abfrage Logik" style="shape=process;whiteSpace=wrap;html=1;backgroundOutline=1;" parent="1" vertex="1">
                    <mxGeometry x="40" y="5760" width="120" height="60" as="geometry"/>
                </mxCell>
                <mxCell id="302" value="" style="edgeStyle=none;html=1;fontStyle=1" parent="1" source="303" target="305" edge="1">
                    <mxGeometry relative="1" as="geometry"/>
                </mxCell>
                <mxCell id="303" value="Hotelkosten preis?" style="rounded=0;whiteSpace=wrap;html=1;" parent="1" vertex="1">
                    <mxGeometry x="441" y="5858" width="120" height="60" as="geometry"/>
                </mxCell>
                <mxCell id="304" value="" style="edgeStyle=none;html=1;fontStyle=1" parent="1" source="305" target="313" edge="1">
                    <mxGeometry relative="1" as="geometry"/>
                </mxCell>
                <mxCell id="305" value="Hotelkosten preis" style="rounded=1;whiteSpace=wrap;html=1;" parent="1" vertex="1">
                    <mxGeometry x="642" y="5858" width="120" height="60" as="geometry"/>
                </mxCell>
                <mxCell id="307" value="" style="edgeStyle=none;html=1;fontStyle=1" parent="1" source="308" target="310" edge="1">
                    <mxGeometry relative="1" as="geometry"/>
                </mxCell>
                <mxCell id="308" value="Welcher Tag Hotelkosten?" style="rounded=0;whiteSpace=wrap;html=1;" parent="1" vertex="1">
                    <mxGeometry x="239.99999999999994" y="5760" width="120" height="60" as="geometry"/>
                </mxCell>
                <mxCell id="309" value="" style="edgeStyle=none;html=1;fontStyle=1" parent="1" source="310" target="303" edge="1">
                    <mxGeometry relative="1" as="geometry"/>
                </mxCell>
                <mxCell id="310" value="Tag Hotelkosten" style="rounded=1;whiteSpace=wrap;html=1;" parent="1" vertex="1">
                    <mxGeometry x="441" y="5760" width="120" height="60" as="geometry"/>
                </mxCell>
                <mxCell id="312" value="" style="edgeStyle=none;html=1;fontStyle=1" parent="1" source="313" target="315" edge="1">
                    <mxGeometry relative="1" as="geometry"/>
                </mxCell>
                <mxCell id="313" value="Weiterer Tag mit Hotelkosten?" style="rounded=0;whiteSpace=wrap;html=1;" parent="1" vertex="1">
                    <mxGeometry x="642" y="5960" width="120" height="60" as="geometry"/>
                </mxCell>
                <mxCell id="314" style="edgeStyle=none;html=1;fontStyle=1" parent="1" source="315" target="321" edge="1">
                    <mxGeometry relative="1" as="geometry"/>
                </mxCell>
                <mxCell id="315" value="Weiterer Tag mit Hotelkosten" style="rounded=1;whiteSpace=wrap;html=1;" parent="1" vertex="1">
                    <mxGeometry x="840" y="5960" width="120" height="60" as="geometry"/>
                </mxCell>
                <mxCell id="317" style="edgeStyle=none;html=1;fontStyle=1" parent="1" source="321" target="308" edge="1">
                    <mxGeometry relative="1" as="geometry">
                        <Array as="points">
                            <mxPoint x="1080" y="6090"/>
                            <mxPoint x="1080" y="5720"/>
                            <mxPoint x="299.99999999999994" y="5720"/>
                        </Array>
                    </mxGeometry>
                </mxCell>
                <mxCell id="318" value="[&lt;span style=&quot;font-size: 12px; background-color: rgb(42, 37, 47);&quot;&gt;Weiterer Tag mit Hotelkosten&lt;/span&gt;==true]" style="edgeLabel;html=1;align=center;verticalAlign=middle;resizable=0;points=[];" parent="317" vertex="1" connectable="0">
                    <mxGeometry x="-0.8428" y="-2" relative="1" as="geometry">
                        <mxPoint x="-3" y="8" as="offset"/>
                    </mxGeometry>
                </mxCell>
                <mxCell id="319" style="edgeStyle=none;html=1;fontStyle=1" parent="1" source="321" target="322" edge="1">
                    <mxGeometry relative="1" as="geometry">
                        <mxPoint x="160" y="6090" as="targetPoint"/>
                    </mxGeometry>
                </mxCell>
                <mxCell id="320" value="[&lt;span style=&quot;font-size: 12px; background-color: rgb(42, 37, 47);&quot;&gt;Weiterer Tag mit Hotelkosten&lt;/span&gt;==false]" style="edgeLabel;html=1;align=center;verticalAlign=middle;resizable=0;points=[];" parent="319" vertex="1" connectable="0">
                    <mxGeometry x="-0.5995" y="4" relative="1" as="geometry">
                        <mxPoint x="26" y="6" as="offset"/>
                    </mxGeometry>
                </mxCell>
                <mxCell id="321" value="Abfrage Logik" style="shape=process;whiteSpace=wrap;html=1;backgroundOutline=1;" parent="1" vertex="1">
                    <mxGeometry x="840" y="6060" width="120" height="60" as="geometry"/>
                </mxCell>
                <mxCell id="329" value="" style="edgeStyle=none;html=1;fontStyle=1" parent="1" source="322" target="327" edge="1">
                    <mxGeometry relative="1" as="geometry"/>
                </mxCell>
                <mxCell id="322" value="Bewirtungskosten?" style="rounded=0;whiteSpace=wrap;html=1;" parent="1" vertex="1">
                    <mxGeometry x="39.99999999999994" y="6060" width="120" height="60" as="geometry"/>
                </mxCell>
                <mxCell id="327" value="&lt;span style=&quot;font-size: 11px; background-color: rgb(24, 20, 29);&quot;&gt;Bewirtungskosten&lt;/span&gt;" style="rounded=1;whiteSpace=wrap;html=1;" parent="1" vertex="1">
                    <mxGeometry x="40" y="6160" width="120" height="60" as="geometry"/>
                </mxCell>
                <mxCell id="330" value="" style="edgeStyle=none;html=1;fontStyle=1" parent="1" target="334" edge="1">
                    <mxGeometry relative="1" as="geometry">
                        <mxPoint x="100" y="6219.999999999999" as="sourcePoint"/>
                    </mxGeometry>
                </mxCell>
                <mxCell id="331" value="" style="edgeStyle=none;html=1;fontStyle=1" parent="1" source="334" edge="1">
                    <mxGeometry relative="1" as="geometry">
                        <mxPoint x="240" y="6289.999999999999" as="targetPoint"/>
                    </mxGeometry>
                </mxCell>
                <mxCell id="332" value="&lt;br&gt;&lt;span style=&quot;color: rgb(240, 240, 240); font-family: Helvetica; font-size: 11px; font-style: normal; font-variant-ligatures: normal; font-variant-caps: normal; letter-spacing: normal; orphans: 2; text-align: center; text-indent: 0px; text-transform: none; widows: 2; word-spacing: 0px; -webkit-text-stroke-width: 0px; background-color: rgb(24, 20, 29); text-decoration-thickness: initial; text-decoration-style: initial; text-decoration-color: initial; float: none; display: inline !important;&quot;&gt;[Bewirtungskosten&lt;/span&gt;&lt;br style=&quot;border-color: rgb(0, 0, 0); color: rgb(240, 240, 240); font-family: Helvetica; font-size: 11px; font-style: normal; font-variant-ligatures: normal; font-variant-caps: normal; letter-spacing: normal; orphans: 2; text-align: center; text-indent: 0px; text-transform: none; widows: 2; word-spacing: 0px; -webkit-text-stroke-width: 0px; text-decoration-thickness: initial; text-decoration-style: initial; text-decoration-color: initial;&quot;&gt;&lt;span style=&quot;color: rgb(240, 240, 240); font-family: Helvetica; font-size: 11px; font-style: normal; font-variant-ligatures: normal; font-variant-caps: normal; letter-spacing: normal; orphans: 2; text-align: center; text-indent: 0px; text-transform: none; widows: 2; word-spacing: 0px; -webkit-text-stroke-width: 0px; background-color: rgb(24, 20, 29); text-decoration-thickness: initial; text-decoration-style: initial; text-decoration-color: initial; float: none; display: inline !important;&quot;&gt;==true]&lt;/span&gt;&lt;br&gt;" style="edgeStyle=none;html=1;fontStyle=1" parent="1" source="334" target="341" edge="1">
                    <mxGeometry y="40" relative="1" as="geometry">
                        <mxPoint as="offset"/>
                    </mxGeometry>
                </mxCell>
                <mxCell id="333" style="edgeStyle=none;html=1;fontStyle=1" parent="1" source="334" target="355" edge="1">
                    <mxGeometry relative="1" as="geometry"/>
                </mxCell>
                <mxCell id="359" value="[Bewirtungskosten&lt;br&gt;==false]" style="edgeLabel;html=1;align=center;verticalAlign=middle;resizable=0;points=[];" parent="333" vertex="1" connectable="0">
                    <mxGeometry x="-0.6333" relative="1" as="geometry">
                        <mxPoint x="-50" y="-24" as="offset"/>
                    </mxGeometry>
                </mxCell>
                <mxCell id="334" value="Abfrage Logik" style="shape=process;whiteSpace=wrap;html=1;backgroundOutline=1;" parent="1" vertex="1">
                    <mxGeometry x="40" y="6260" width="120" height="60" as="geometry"/>
                </mxCell>
                <mxCell id="335" value="" style="edgeStyle=none;html=1;fontStyle=1" parent="1" source="336" target="338" edge="1">
                    <mxGeometry relative="1" as="geometry"/>
                </mxCell>
                <mxCell id="336" value="&lt;span style=&quot;font-size: 11px; background-color: rgb(24, 20, 29);&quot;&gt;Bewirtungskosten&lt;/span&gt;&amp;nbsp;preis?" style="rounded=0;whiteSpace=wrap;html=1;" parent="1" vertex="1">
                    <mxGeometry x="441" y="6358" width="120" height="60" as="geometry"/>
                </mxCell>
                <mxCell id="337" value="" style="edgeStyle=none;html=1;fontStyle=1" parent="1" source="338" target="346" edge="1">
                    <mxGeometry relative="1" as="geometry"/>
                </mxCell>
                <mxCell id="338" value="&lt;span style=&quot;font-size: 11px; background-color: rgb(24, 20, 29);&quot;&gt;Bewirtungskosten&amp;nbsp;&lt;/span&gt;preis" style="rounded=1;whiteSpace=wrap;html=1;" parent="1" vertex="1">
                    <mxGeometry x="642" y="6358" width="120" height="60" as="geometry"/>
                </mxCell>
                <mxCell id="340" value="" style="edgeStyle=none;html=1;fontStyle=1" parent="1" source="341" target="343" edge="1">
                    <mxGeometry relative="1" as="geometry"/>
                </mxCell>
                <mxCell id="341" value="Welcher Tag&amp;nbsp;&lt;span style=&quot;font-size: 11px; background-color: rgb(24, 20, 29);&quot;&gt;Bewirtungskosten&lt;/span&gt;?" style="rounded=0;whiteSpace=wrap;html=1;" parent="1" vertex="1">
                    <mxGeometry x="239.99999999999994" y="6260" width="120" height="60" as="geometry"/>
                </mxCell>
                <mxCell id="342" value="" style="edgeStyle=none;html=1;fontStyle=1" parent="1" source="343" target="336" edge="1">
                    <mxGeometry relative="1" as="geometry"/>
                </mxCell>
                <mxCell id="343" value="Tag&amp;nbsp;&lt;span style=&quot;font-size: 11px; background-color: rgb(24, 20, 29);&quot;&gt;Bewirtungskosten&lt;/span&gt;" style="rounded=1;whiteSpace=wrap;html=1;" parent="1" vertex="1">
                    <mxGeometry x="441" y="6260" width="120" height="60" as="geometry"/>
                </mxCell>
                <mxCell id="345" value="" style="edgeStyle=none;html=1;fontStyle=1" parent="1" source="346" target="348" edge="1">
                    <mxGeometry relative="1" as="geometry"/>
                </mxCell>
                <mxCell id="346" value="Weiterer Tag mit&amp;nbsp;&lt;span style=&quot;font-size: 11px; background-color: rgb(24, 20, 29);&quot;&gt;Bewirtungskosten&lt;/span&gt;?" style="rounded=0;whiteSpace=wrap;html=1;" parent="1" vertex="1">
                    <mxGeometry x="642" y="6460" width="120" height="60" as="geometry"/>
                </mxCell>
                <mxCell id="347" style="edgeStyle=none;html=1;fontStyle=1" parent="1" source="348" target="354" edge="1">
                    <mxGeometry relative="1" as="geometry"/>
                </mxCell>
                <mxCell id="348" value="Weiterer Tag mit&amp;nbsp;&lt;span style=&quot;font-size: 11px; background-color: rgb(24, 20, 29);&quot;&gt;Bewirtungskosten&lt;/span&gt;" style="rounded=1;whiteSpace=wrap;html=1;" parent="1" vertex="1">
                    <mxGeometry x="840" y="6460" width="120" height="60" as="geometry"/>
                </mxCell>
                <mxCell id="350" style="edgeStyle=none;html=1;fontStyle=1" parent="1" source="354" target="341" edge="1">
                    <mxGeometry relative="1" as="geometry">
                        <Array as="points">
                            <mxPoint x="1120" y="6590"/>
                            <mxPoint x="1120" y="6220"/>
                            <mxPoint x="299.99999999999994" y="6220"/>
                        </Array>
                    </mxGeometry>
                </mxCell>
                <mxCell id="351" value="[&lt;span style=&quot;font-size: 12px; background-color: rgb(42, 37, 47);&quot;&gt;Weiterer Tag mit&amp;nbsp;&lt;/span&gt;&lt;span style=&quot;&quot;&gt;Bewirtungskosten&lt;/span&gt;==true]" style="edgeLabel;html=1;align=center;verticalAlign=middle;resizable=0;points=[];" parent="350" vertex="1" connectable="0">
                    <mxGeometry x="-0.8428" y="-2" relative="1" as="geometry">
                        <mxPoint x="-3" y="8" as="offset"/>
                    </mxGeometry>
                </mxCell>
                <mxCell id="352" style="edgeStyle=none;html=1;fontStyle=1" parent="1" source="354" target="355" edge="1">
                    <mxGeometry relative="1" as="geometry">
                        <mxPoint x="160" y="6590" as="targetPoint"/>
                    </mxGeometry>
                </mxCell>
                <mxCell id="353" value="[&lt;span style=&quot;font-size: 12px; background-color: rgb(42, 37, 47);&quot;&gt;Weiterer Tag mit&amp;nbsp;&lt;/span&gt;&lt;span style=&quot;&quot;&gt;Bewirtungskosten&lt;/span&gt;==false]" style="edgeLabel;html=1;align=center;verticalAlign=middle;resizable=0;points=[];" parent="352" vertex="1" connectable="0">
                    <mxGeometry x="-0.5995" y="4" relative="1" as="geometry">
                        <mxPoint x="26" y="6" as="offset"/>
                    </mxGeometry>
                </mxCell>
                <mxCell id="354" value="Abfrage Logik" style="shape=process;whiteSpace=wrap;html=1;backgroundOutline=1;" parent="1" vertex="1">
                    <mxGeometry x="840" y="6560" width="120" height="60" as="geometry"/>
                </mxCell>
                <mxCell id="362" value="" style="edgeStyle=none;html=1;fontStyle=1" parent="1" source="355" target="361" edge="1">
                    <mxGeometry relative="1" as="geometry"/>
                </mxCell>
                <mxCell id="355" value="Trinkgeld?" style="rounded=0;whiteSpace=wrap;html=1;" parent="1" vertex="1">
                    <mxGeometry x="39.99999999999994" y="6560" width="120" height="60" as="geometry"/>
                </mxCell>
                <mxCell id="361" value="&lt;span style=&quot;font-size: 11px; background-color: rgb(24, 20, 29);&quot;&gt;Trinkgeld&lt;/span&gt;" style="rounded=1;whiteSpace=wrap;html=1;" parent="1" vertex="1">
                    <mxGeometry x="40" y="6660" width="120" height="60" as="geometry"/>
                </mxCell>
                <mxCell id="364" value="" style="edgeStyle=none;html=1;fontStyle=1" parent="1" target="369" edge="1">
                    <mxGeometry relative="1" as="geometry">
                        <mxPoint x="100" y="6719.999999999999" as="sourcePoint"/>
                    </mxGeometry>
                </mxCell>
                <mxCell id="365" value="" style="edgeStyle=none;html=1;fontStyle=1" parent="1" source="369" edge="1">
                    <mxGeometry relative="1" as="geometry">
                        <mxPoint x="240" y="6789.999999999999" as="targetPoint"/>
                    </mxGeometry>
                </mxCell>
                <mxCell id="366" value="&lt;br&gt;&lt;span style=&quot;color: rgb(240, 240, 240); font-family: Helvetica; font-size: 11px; font-style: normal; font-variant-ligatures: normal; font-variant-caps: normal; letter-spacing: normal; orphans: 2; text-align: center; text-indent: 0px; text-transform: none; widows: 2; word-spacing: 0px; -webkit-text-stroke-width: 0px; background-color: rgb(24, 20, 29); text-decoration-thickness: initial; text-decoration-style: initial; text-decoration-color: initial; float: none; display: inline !important;&quot;&gt;[&lt;/span&gt;&lt;span style=&quot;&quot;&gt;Trinkgeld&lt;/span&gt;&lt;br style=&quot;border-color: rgb(0, 0, 0); color: rgb(240, 240, 240); font-family: Helvetica; font-size: 11px; font-style: normal; font-variant-ligatures: normal; font-variant-caps: normal; letter-spacing: normal; orphans: 2; text-align: center; text-indent: 0px; text-transform: none; widows: 2; word-spacing: 0px; -webkit-text-stroke-width: 0px; text-decoration-thickness: initial; text-decoration-style: initial; text-decoration-color: initial;&quot;&gt;&lt;span style=&quot;color: rgb(240, 240, 240); font-family: Helvetica; font-size: 11px; font-style: normal; font-variant-ligatures: normal; font-variant-caps: normal; letter-spacing: normal; orphans: 2; text-align: center; text-indent: 0px; text-transform: none; widows: 2; word-spacing: 0px; -webkit-text-stroke-width: 0px; background-color: rgb(24, 20, 29); text-decoration-thickness: initial; text-decoration-style: initial; text-decoration-color: initial; float: none; display: inline !important;&quot;&gt;==true]&lt;/span&gt;" style="edgeStyle=none;html=1;fontStyle=1" parent="1" source="369" target="376" edge="1">
                    <mxGeometry y="40" relative="1" as="geometry">
                        <mxPoint as="offset"/>
                    </mxGeometry>
                </mxCell>
                <mxCell id="367" style="edgeStyle=none;html=1;fontStyle=1" parent="1" source="369" target="390" edge="1">
                    <mxGeometry relative="1" as="geometry"/>
                </mxCell>
                <mxCell id="368" value="[&lt;span style=&quot;&quot;&gt;Trinkgeld&lt;/span&gt;&lt;br&gt;==false]" style="edgeLabel;html=1;align=center;verticalAlign=middle;resizable=0;points=[];" parent="367" vertex="1" connectable="0">
                    <mxGeometry x="-0.6333" relative="1" as="geometry">
                        <mxPoint x="-50" y="-24" as="offset"/>
                    </mxGeometry>
                </mxCell>
                <mxCell id="369" value="Abfrage Logik" style="shape=process;whiteSpace=wrap;html=1;backgroundOutline=1;" parent="1" vertex="1">
                    <mxGeometry x="40" y="6760" width="120" height="60" as="geometry"/>
                </mxCell>
                <mxCell id="370" value="" style="edgeStyle=none;html=1;fontStyle=1" parent="1" source="371" target="373" edge="1">
                    <mxGeometry relative="1" as="geometry"/>
                </mxCell>
                <mxCell id="371" value="&lt;span style=&quot;font-size: 11px; background-color: rgb(24, 20, 29);&quot;&gt;Trinkgeld&lt;/span&gt;&amp;nbsp;preis?" style="rounded=0;whiteSpace=wrap;html=1;" parent="1" vertex="1">
                    <mxGeometry x="441" y="6858" width="120" height="60" as="geometry"/>
                </mxCell>
                <mxCell id="372" value="" style="edgeStyle=none;html=1;fontStyle=1" parent="1" source="373" target="381" edge="1">
                    <mxGeometry relative="1" as="geometry"/>
                </mxCell>
                <mxCell id="373" value="&lt;span style=&quot;font-size: 11px; background-color: rgb(24, 20, 29);&quot;&gt;Trinkgeld&lt;/span&gt;&lt;span style=&quot;font-size: 11px; background-color: rgb(24, 20, 29);&quot;&gt;&amp;nbsp;&lt;/span&gt;preis" style="rounded=1;whiteSpace=wrap;html=1;" parent="1" vertex="1">
                    <mxGeometry x="642" y="6858" width="120" height="60" as="geometry"/>
                </mxCell>
                <mxCell id="375" value="" style="edgeStyle=none;html=1;fontStyle=1" parent="1" source="376" target="378" edge="1">
                    <mxGeometry relative="1" as="geometry"/>
                </mxCell>
                <mxCell id="376" value="Welcher Tag&amp;nbsp;&lt;span style=&quot;font-size: 11px; background-color: rgb(24, 20, 29);&quot;&gt;Trinkgeld&lt;/span&gt;?" style="rounded=0;whiteSpace=wrap;html=1;" parent="1" vertex="1">
                    <mxGeometry x="239.99999999999994" y="6760" width="120" height="60" as="geometry"/>
                </mxCell>
                <mxCell id="377" value="" style="edgeStyle=none;html=1;fontStyle=1" parent="1" source="378" target="371" edge="1">
                    <mxGeometry relative="1" as="geometry"/>
                </mxCell>
                <mxCell id="378" value="Tag&amp;nbsp;&lt;span style=&quot;font-size: 11px; background-color: rgb(24, 20, 29);&quot;&gt;Trinkgeld&lt;/span&gt;" style="rounded=1;whiteSpace=wrap;html=1;" parent="1" vertex="1">
                    <mxGeometry x="441" y="6760" width="120" height="60" as="geometry"/>
                </mxCell>
                <mxCell id="380" value="" style="edgeStyle=none;html=1;fontStyle=1" parent="1" source="381" target="383" edge="1">
                    <mxGeometry relative="1" as="geometry"/>
                </mxCell>
                <mxCell id="381" value="Weiterer Tag mit&amp;nbsp;&lt;span style=&quot;font-size: 11px; background-color: rgb(24, 20, 29);&quot;&gt;Trinkgeld&lt;/span&gt;?" style="rounded=0;whiteSpace=wrap;html=1;" parent="1" vertex="1">
                    <mxGeometry x="642" y="6960" width="120" height="60" as="geometry"/>
                </mxCell>
                <mxCell id="382" style="edgeStyle=none;html=1;fontStyle=1" parent="1" source="383" target="389" edge="1">
                    <mxGeometry relative="1" as="geometry"/>
                </mxCell>
                <mxCell id="383" value="Weiterer Tag mit&amp;nbsp;&lt;span style=&quot;font-size: 11px; background-color: rgb(24, 20, 29);&quot;&gt;Trinkgeld&lt;/span&gt;" style="rounded=1;whiteSpace=wrap;html=1;" parent="1" vertex="1">
                    <mxGeometry x="840" y="6960" width="120" height="60" as="geometry"/>
                </mxCell>
                <mxCell id="385" style="edgeStyle=none;html=1;fontStyle=1" parent="1" source="389" target="376" edge="1">
                    <mxGeometry relative="1" as="geometry">
                        <Array as="points">
                            <mxPoint x="1120" y="7090"/>
                            <mxPoint x="1120" y="6720"/>
                            <mxPoint x="299.99999999999994" y="6720"/>
                        </Array>
                    </mxGeometry>
                </mxCell>
                <mxCell id="386" value="[&lt;span style=&quot;font-size: 12px; background-color: rgb(42, 37, 47);&quot;&gt;Weiterer Tag mit&amp;nbsp;&lt;/span&gt;&lt;span style=&quot;&quot;&gt;Trinkgeld&lt;/span&gt;==true]" style="edgeLabel;html=1;align=center;verticalAlign=middle;resizable=0;points=[];" parent="385" vertex="1" connectable="0">
                    <mxGeometry x="-0.8428" y="-2" relative="1" as="geometry">
                        <mxPoint x="-3" y="8" as="offset"/>
                    </mxGeometry>
                </mxCell>
                <mxCell id="387" style="edgeStyle=none;html=1;fontStyle=1" parent="1" source="389" target="390" edge="1">
                    <mxGeometry relative="1" as="geometry">
                        <mxPoint x="160" y="7090" as="targetPoint"/>
                    </mxGeometry>
                </mxCell>
                <mxCell id="388" value="[&lt;span style=&quot;font-size: 12px; background-color: rgb(42, 37, 47);&quot;&gt;Weiterer Tag mit&amp;nbsp;&lt;/span&gt;&lt;span style=&quot;&quot;&gt;Trinkgeld&lt;/span&gt;==false]" style="edgeLabel;html=1;align=center;verticalAlign=middle;resizable=0;points=[];" parent="387" vertex="1" connectable="0">
                    <mxGeometry x="-0.5995" y="4" relative="1" as="geometry">
                        <mxPoint x="26" y="6" as="offset"/>
                    </mxGeometry>
                </mxCell>
                <mxCell id="389" value="Abfrage Logik" style="shape=process;whiteSpace=wrap;html=1;backgroundOutline=1;" parent="1" vertex="1">
                    <mxGeometry x="840" y="7060" width="120" height="60" as="geometry"/>
                </mxCell>
                <mxCell id="392" value="" style="edgeStyle=none;html=1;fontStyle=1" parent="1" source="390" target="391" edge="1">
                    <mxGeometry relative="1" as="geometry"/>
                </mxCell>
                <mxCell id="390" value="sonstiges?" style="rounded=0;whiteSpace=wrap;html=1;" parent="1" vertex="1">
                    <mxGeometry x="39.99999999999994" y="7060" width="120" height="60" as="geometry"/>
                </mxCell>
                <mxCell id="391" value="&lt;span style=&quot;font-size: 11px; background-color: rgb(24, 20, 29);&quot;&gt;sonstiges&lt;/span&gt;" style="rounded=1;whiteSpace=wrap;html=1;" parent="1" vertex="1">
                    <mxGeometry x="40" y="7160" width="120" height="60" as="geometry"/>
                </mxCell>
                <mxCell id="394" value="" style="edgeStyle=none;html=1;fontStyle=1" parent="1" target="399" edge="1">
                    <mxGeometry relative="1" as="geometry">
                        <mxPoint x="101" y="7220" as="sourcePoint"/>
                    </mxGeometry>
                </mxCell>
                <mxCell id="395" value="" style="edgeStyle=none;html=1;fontStyle=1" parent="1" source="399" edge="1">
                    <mxGeometry relative="1" as="geometry">
                        <mxPoint x="241" y="7290" as="targetPoint"/>
                    </mxGeometry>
                </mxCell>
                <mxCell id="396" value="&lt;br&gt;&lt;span style=&quot;color: rgb(240, 240, 240); font-family: Helvetica; font-size: 11px; font-style: normal; font-variant-ligatures: normal; font-variant-caps: normal; letter-spacing: normal; orphans: 2; text-align: center; text-indent: 0px; text-transform: none; widows: 2; word-spacing: 0px; -webkit-text-stroke-width: 0px; background-color: rgb(24, 20, 29); text-decoration-thickness: initial; text-decoration-style: initial; text-decoration-color: initial; float: none; display: inline !important;&quot;&gt;[&lt;/span&gt;&lt;span style=&quot;&quot;&gt;sonstiges&lt;/span&gt;&lt;br style=&quot;border-color: rgb(0, 0, 0); color: rgb(240, 240, 240); font-family: Helvetica; font-size: 11px; font-style: normal; font-variant-ligatures: normal; font-variant-caps: normal; letter-spacing: normal; orphans: 2; text-align: center; text-indent: 0px; text-transform: none; widows: 2; word-spacing: 0px; -webkit-text-stroke-width: 0px; text-decoration-thickness: initial; text-decoration-style: initial; text-decoration-color: initial;&quot;&gt;&lt;span style=&quot;color: rgb(240, 240, 240); font-family: Helvetica; font-size: 11px; font-style: normal; font-variant-ligatures: normal; font-variant-caps: normal; letter-spacing: normal; orphans: 2; text-align: center; text-indent: 0px; text-transform: none; widows: 2; word-spacing: 0px; -webkit-text-stroke-width: 0px; background-color: rgb(24, 20, 29); text-decoration-thickness: initial; text-decoration-style: initial; text-decoration-color: initial; float: none; display: inline !important;&quot;&gt;==true]&lt;/span&gt;" style="edgeStyle=none;html=1;fontStyle=1" parent="1" source="399" target="406" edge="1">
                    <mxGeometry y="40" relative="1" as="geometry">
                        <mxPoint as="offset"/>
                    </mxGeometry>
                </mxCell>
                <mxCell id="397" style="edgeStyle=none;html=1;fontStyle=1" parent="1" source="399" target="444" edge="1">
                    <mxGeometry relative="1" as="geometry">
                        <mxPoint x="101" y="7560" as="targetPoint"/>
                    </mxGeometry>
                </mxCell>
                <mxCell id="398" value="[&lt;span style=&quot;&quot;&gt;sonstiges&lt;/span&gt;&lt;br&gt;==false]" style="edgeLabel;html=1;align=center;verticalAlign=middle;resizable=0;points=[];" parent="397" vertex="1" connectable="0">
                    <mxGeometry x="-0.6333" relative="1" as="geometry">
                        <mxPoint x="-50" y="-24" as="offset"/>
                    </mxGeometry>
                </mxCell>
                <mxCell id="399" value="Abfrage Logik" style="shape=process;whiteSpace=wrap;html=1;backgroundOutline=1;" parent="1" vertex="1">
                    <mxGeometry x="41" y="7260" width="120" height="60" as="geometry"/>
                </mxCell>
                <mxCell id="400" value="" style="edgeStyle=none;html=1;fontStyle=1" parent="1" source="401" target="403" edge="1">
                    <mxGeometry relative="1" as="geometry"/>
                </mxCell>
                <mxCell id="401" value="&lt;span style=&quot;font-size: 11px; background-color: rgb(24, 20, 29);&quot;&gt;sonstiges&lt;/span&gt;&amp;nbsp;preis?" style="rounded=0;whiteSpace=wrap;html=1;" parent="1" vertex="1">
                    <mxGeometry x="442" y="7358" width="120" height="60" as="geometry"/>
                </mxCell>
                <mxCell id="402" value="" style="edgeStyle=none;html=1;fontStyle=1" parent="1" source="403" target="411" edge="1">
                    <mxGeometry relative="1" as="geometry"/>
                </mxCell>
                <mxCell id="403" value="&lt;span style=&quot;font-size: 11px; background-color: rgb(24, 20, 29);&quot;&gt;sonstiges&lt;/span&gt;&lt;span style=&quot;font-size: 11px; background-color: rgb(24, 20, 29);&quot;&gt;&amp;nbsp;&lt;/span&gt;preis" style="rounded=1;whiteSpace=wrap;html=1;" parent="1" vertex="1">
                    <mxGeometry x="643" y="7358" width="120" height="60" as="geometry"/>
                </mxCell>
                <mxCell id="405" value="" style="edgeStyle=none;html=1;fontStyle=1" parent="1" source="406" target="408" edge="1">
                    <mxGeometry relative="1" as="geometry"/>
                </mxCell>
                <mxCell id="406" value="Welcher Tag&amp;nbsp;&lt;span style=&quot;font-size: 11px; background-color: rgb(24, 20, 29);&quot;&gt;sonstiges&lt;/span&gt;?" style="rounded=0;whiteSpace=wrap;html=1;" parent="1" vertex="1">
                    <mxGeometry x="240.99999999999994" y="7260" width="120" height="60" as="geometry"/>
                </mxCell>
                <mxCell id="407" value="" style="edgeStyle=none;html=1;fontStyle=1" parent="1" source="408" target="401" edge="1">
                    <mxGeometry relative="1" as="geometry"/>
                </mxCell>
                <mxCell id="408" value="Tag&amp;nbsp;&lt;span style=&quot;font-size: 11px; background-color: rgb(24, 20, 29);&quot;&gt;sonstiges&lt;/span&gt;" style="rounded=1;whiteSpace=wrap;html=1;" parent="1" vertex="1">
                    <mxGeometry x="442" y="7260" width="120" height="60" as="geometry"/>
                </mxCell>
                <mxCell id="410" value="" style="edgeStyle=none;html=1;fontStyle=1" parent="1" source="411" target="413" edge="1">
                    <mxGeometry relative="1" as="geometry"/>
                </mxCell>
                <mxCell id="411" value="Weiterer Tag mit&amp;nbsp;&lt;span style=&quot;font-size: 11px; background-color: rgb(24, 20, 29);&quot;&gt;sonstiges&lt;/span&gt;?" style="rounded=0;whiteSpace=wrap;html=1;" parent="1" vertex="1">
                    <mxGeometry x="643" y="7460" width="120" height="60" as="geometry"/>
                </mxCell>
                <mxCell id="422" value="" style="edgeStyle=none;html=1;fontStyle=1" parent="1" source="413" target="421" edge="1">
                    <mxGeometry relative="1" as="geometry"/>
                </mxCell>
                <mxCell id="413" value="Weiterer Tag mit&amp;nbsp;&lt;span style=&quot;font-size: 11px; background-color: rgb(24, 20, 29);&quot;&gt;Trinkgeld&lt;/span&gt;" style="rounded=1;whiteSpace=wrap;html=1;" parent="1" vertex="1">
                    <mxGeometry x="841" y="7460" width="120" height="60" as="geometry"/>
                </mxCell>
                <mxCell id="415" style="edgeStyle=none;html=1;fontStyle=1" parent="1" source="419" target="406" edge="1">
                    <mxGeometry relative="1" as="geometry">
                        <Array as="points">
                            <mxPoint x="1520" y="7790"/>
                            <mxPoint x="1520" y="7220"/>
                            <mxPoint x="300.99999999999994" y="7220"/>
                        </Array>
                        <mxPoint x="961" y="7590" as="sourcePoint"/>
                    </mxGeometry>
                </mxCell>
                <mxCell id="416" value="[&lt;span style=&quot;&quot;&gt;Weiterer Tag sonstiges&lt;/span&gt;&lt;span style=&quot;font-size: 12px; background-color: rgb(42, 37, 47);&quot;&gt;?&lt;/span&gt;==true]" style="edgeLabel;html=1;align=center;verticalAlign=middle;resizable=0;points=[];" parent="415" vertex="1" connectable="0">
                    <mxGeometry x="-0.8428" y="-2" relative="1" as="geometry">
                        <mxPoint x="-78" y="8" as="offset"/>
                    </mxGeometry>
                </mxCell>
                <mxCell id="417" style="edgeStyle=none;html=1;fontStyle=1" parent="1" source="419" target="444" edge="1">
                    <mxGeometry relative="1" as="geometry">
                        <mxPoint x="400" y="7780" as="targetPoint"/>
                        <mxPoint x="840" y="7780" as="sourcePoint"/>
                    </mxGeometry>
                </mxCell>
                <mxCell id="418" value="[&lt;span style=&quot;&quot;&gt;Weiterer Tag sonstiges&lt;/span&gt;&lt;span style=&quot;font-size: 12px; background-color: rgb(42, 37, 47);&quot;&gt;?&lt;/span&gt;==false]" style="edgeLabel;html=1;align=center;verticalAlign=middle;resizable=0;points=[];" parent="417" vertex="1" connectable="0">
                    <mxGeometry x="-0.5995" y="4" relative="1" as="geometry">
                        <mxPoint x="136" y="6" as="offset"/>
                    </mxGeometry>
                </mxCell>
                <mxCell id="419" value="Abfrage Logik" style="shape=process;whiteSpace=wrap;html=1;backgroundOutline=1;" parent="1" vertex="1">
                    <mxGeometry x="1241" y="7760" width="120" height="60" as="geometry"/>
                </mxCell>
                <mxCell id="425" value="" style="edgeStyle=none;html=1;fontStyle=1" parent="1" source="421" target="423" edge="1">
                    <mxGeometry relative="1" as="geometry"/>
                </mxCell>
                <mxCell id="421" value="&lt;span style=&quot;font-size: 11px; background-color: rgb(24, 20, 29);&quot;&gt;Erl채uterung sonstiges&lt;/span&gt;?" style="rounded=0;whiteSpace=wrap;html=1;" parent="1" vertex="1">
                    <mxGeometry x="841" y="7560" width="120" height="60" as="geometry"/>
                </mxCell>
                <mxCell id="428" value="" style="edgeStyle=none;html=1;fontStyle=1" parent="1" source="423" target="427" edge="1">
                    <mxGeometry relative="1" as="geometry"/>
                </mxCell>
                <mxCell id="423" value="&lt;span style=&quot;font-size: 11px; background-color: rgb(24, 20, 29);&quot;&gt;Erl채uterung sonstiges&lt;/span&gt;" style="rounded=1;whiteSpace=wrap;html=1;" parent="1" vertex="1">
                    <mxGeometry x="1040" y="7560" width="120" height="60" as="geometry"/>
                </mxCell>
                <mxCell id="430" value="" style="edgeStyle=none;html=1;fontStyle=1" parent="1" source="427" target="429" edge="1">
                    <mxGeometry relative="1" as="geometry"/>
                </mxCell>
                <mxCell id="427" value="&lt;span style=&quot;font-size: 11px; background-color: rgb(24, 20, 29);&quot;&gt;Weiterer Tag sonstiges&lt;/span&gt;?" style="rounded=0;whiteSpace=wrap;html=1;" parent="1" vertex="1">
                    <mxGeometry x="1040" y="7660" width="120" height="60" as="geometry"/>
                </mxCell>
                <mxCell id="431" value="" style="edgeStyle=none;html=1;fontStyle=1" parent="1" source="429" target="419" edge="1">
                    <mxGeometry relative="1" as="geometry"/>
                </mxCell>
                <mxCell id="429" value="&lt;span style=&quot;font-size: 11px; background-color: rgb(24, 20, 29);&quot;&gt;Weiterer Tag sonstiges&lt;/span&gt;" style="rounded=1;whiteSpace=wrap;html=1;" parent="1" vertex="1">
                    <mxGeometry x="1241" y="7660" width="120" height="60" as="geometry"/>
                </mxCell>
                <mxCell id="443" value="" style="edgeStyle=none;html=1;fontStyle=1" parent="1" source="444" target="446" edge="1">
                    <mxGeometry relative="1" as="geometry"/>
                </mxCell>
                <mxCell id="444" value="Weitere Dienstreisen?" style="rounded=0;whiteSpace=wrap;html=1;" parent="1" vertex="1">
                    <mxGeometry x="40" y="7760" width="120" height="60" as="geometry"/>
                </mxCell>
                <mxCell id="445" value="" style="edgeStyle=none;html=1;fontStyle=1" parent="1" source="446" target="448" edge="1">
                    <mxGeometry relative="1" as="geometry"/>
                </mxCell>
                <mxCell id="446" value="weitere Dienstreise" style="rounded=1;whiteSpace=wrap;html=1;" parent="1" vertex="1">
                    <mxGeometry x="40" y="7860" width="120" height="60" as="geometry"/>
                </mxCell>
                <mxCell id="449" value="&lt;span style=&quot;color: rgb(240, 240, 240); font-family: Helvetica; font-size: 12px; font-style: normal; font-variant-ligatures: normal; font-variant-caps: normal; letter-spacing: normal; orphans: 2; text-align: center; text-indent: 0px; text-transform: none; widows: 2; word-spacing: 0px; -webkit-text-stroke-width: 0px; background-color: rgb(42, 37, 47); text-decoration-thickness: initial; text-decoration-style: initial; text-decoration-color: initial; float: none; display: inline !important;&quot;&gt;[weitere Dienstreise==false]&lt;/span&gt;" style="edgeStyle=none;html=1;fontStyle=1" parent="1" source="448" target="QfeDqmOQfvV1Y4iZlrYc-1" edge="1">
                    <mxGeometry x="-0.9775" y="-10" relative="1" as="geometry">
                        <mxPoint x="-170" y="6940" as="targetPoint"/>
                        <Array as="points">
                            <mxPoint x="-120" y="6870"/>
                            <mxPoint x="-120" y="3340"/>
                            <mxPoint x="-120" y="70"/>
                        </Array>
                        <mxPoint as="offset"/>
                    </mxGeometry>
                </mxCell>
                <mxCell id="452" value="&lt;span style=&quot;color: rgb(240, 240, 240); font-family: Helvetica; font-size: 12px; font-style: normal; font-variant-ligatures: normal; font-variant-caps: normal; letter-spacing: normal; orphans: 2; text-align: center; text-indent: 0px; text-transform: none; widows: 2; word-spacing: 0px; -webkit-text-stroke-width: 0px; background-color: rgb(42, 37, 47); text-decoration-thickness: initial; text-decoration-style: initial; text-decoration-color: initial; float: none; display: inline !important;&quot;&gt;[weitere Dienstreise==false]&lt;/span&gt;" style="edgeStyle=none;html=1;fontStyle=1" parent="1" source="448" target="451" edge="1">
                    <mxGeometry y="80" relative="1" as="geometry">
                        <mxPoint as="offset"/>
                    </mxGeometry>
                </mxCell>
                <mxCell id="448" value="Abfrage Logik" style="shape=process;whiteSpace=wrap;html=1;backgroundOutline=1;" parent="1" vertex="1">
                    <mxGeometry x="40" y="7960" width="120" height="60" as="geometry"/>
                </mxCell>
                <mxCell id="451" value="" style="shape=sumEllipse;perimeter=ellipsePerimeter;whiteSpace=wrap;html=1;backgroundOutline=1;" parent="1" vertex="1">
                    <mxGeometry x="60" y="8060" width="80" height="80" as="geometry"/>
                </mxCell>
                <mxCell id="456" value="" style="edgeStyle=none;html=1;" edge="1" parent="1" source="453" target="454">
                    <mxGeometry relative="1" as="geometry"/>
                </mxCell>
                <mxCell id="453" value="Essen gestellt bekommen?&lt;br&gt;&lt;font style=&quot;font-size: 8px;&quot;&gt;ask.mealsProvided.boolean&lt;/font&gt;" style="rounded=0;whiteSpace=wrap;html=1;" vertex="1" parent="1">
                    <mxGeometry x="40" y="1140" width="120" height="60" as="geometry"/>
                </mxCell>
                <mxCell id="458" value="" style="edgeStyle=none;html=1;" edge="1" parent="1" source="454" target="457">
                    <mxGeometry relative="1" as="geometry"/>
                </mxCell>
                <mxCell id="454" value="Essen gestellt bekommen" style="rounded=1;whiteSpace=wrap;html=1;" vertex="1" parent="1">
                    <mxGeometry x="40" y="1240" width="120" height="60" as="geometry"/>
                </mxCell>
                <mxCell id="459" style="edgeStyle=none;html=1;" edge="1" parent="1" source="457" target="51">
                    <mxGeometry relative="1" as="geometry"/>
                </mxCell>
                <mxCell id="460" value="[Essen gestellt bekommen==true]" style="edgeLabel;html=1;align=center;verticalAlign=middle;resizable=0;points=[];" vertex="1" connectable="0" parent="459">
                    <mxGeometry x="-0.5067" y="1" relative="1" as="geometry">
                        <mxPoint x="89" y="11" as="offset"/>
                    </mxGeometry>
                </mxCell>
                <mxCell id="461" style="edgeStyle=none;html=1;" edge="1" parent="1" source="457">
                    <mxGeometry relative="1" as="geometry">
                        <mxPoint x="30" y="2370" as="targetPoint"/>
                        <Array as="points">
                            <mxPoint x="-40" y="1370"/>
                            <mxPoint x="-40" y="2370"/>
                        </Array>
                    </mxGeometry>
                </mxCell>
                <mxCell id="462" value="[Essen gestellt&lt;br&gt;bekomm==false]" style="edgeLabel;html=1;align=center;verticalAlign=middle;resizable=0;points=[];" vertex="1" connectable="0" parent="461">
                    <mxGeometry x="-0.9105" y="1" relative="1" as="geometry">
                        <mxPoint x="12" y="19" as="offset"/>
                    </mxGeometry>
                </mxCell>
                <mxCell id="457" value="Abfrage Logik" style="shape=process;whiteSpace=wrap;html=1;backgroundOutline=1;" vertex="1" parent="1">
                    <mxGeometry x="40" y="1340" width="120" height="60" as="geometry"/>
                </mxCell>
            </root>
        </mxGraphModel>
    </diagram>
</mxfile>